<?xml version="1.0" standalone="no"?>
<!DOCTYPE svg PUBLIC "-//W3C//DTD SVG 20010904//EN"
 "http://www.w3.org/TR/2001/REC-SVG-20010904/DTD/svg10.dtd">
<svg version="1.0" xmlns="http://www.w3.org/2000/svg"
 width="300.000000pt" height="300.000000pt" viewBox="0 0 300.000000 300.000000"
 preserveAspectRatio="xMidYMid meet">
<metadata>
Created by potrace 1.10, written by Peter Selinger 2001-2011
</metadata>
<g transform="translate(0.000000,300.000000) scale(0.050000,-0.050000)"
fill="#000000" stroke="none">
<path d="M1265 4395 c-327 -347 -518 -1157 -399 -1686 79 -351 243 -694 337
-705 90 -11 85 46 -22 264 -313 636 -258 1371 148 1961 73 105 91 146 76 170
-30 49 -92 47 -140 -4z"/>
<path d="M4604 4416 c-35 -35 -32 -43 69 -191 404 -585 459 -1323 146 -1957
-107 -218 -112 -275 -22 -264 164 19 369 641 369 1116 0 598 -381 1477 -562
1296z"/>
<path d="M1536 4025 c-293 -442 -350 -1015 -150 -1514 60 -151 68 -161 124
-161 79 0 77 57 -13 300 -136 369 -87 861 123 1219 92 156 97 218 18 227 -41
5 -62 -10 -102 -71z"/>
<path d="M4313 4087 c-28 -29 -10 -88 67 -220 210 -356 259 -848 123 -1217
-90 -243 -92 -300 -13 -300 134 0 277 564 236 927 -50 440 -297 925 -413 810z"/>
<path d="M2786 3932 c-372 -121 -454 -292 -607 -1257 -73 -465 -159 -725 -320
-970 l-43 -65 1184 0 1184 0 -43 65 c-166 252 -231 450 -320 975 -134 785
-164 894 -294 1054 -146 181 -503 276 -741 198z m-111 -1199 c79 -43 17 -99
-80 -72 -93 26 -160 -3 -151 -66 6 -42 14 -46 182 -83 117 -27 147 -216 45
-283 -87 -57 -351 -20 -351 49 0 35 59 68 85 47 14 -11 54 -27 89 -34 143 -31
207 100 66 135 -181 46 -238 107 -209 221 26 104 207 152 324 86z m473 -35
c82 -96 78 -355 -6 -440 -158 -157 -342 -40 -342 219 0 212 50 283 200 283 83
0 104 -8 148 -62z m453 41 c43 -23 47 -36 21 -76 -14 -23 -31 -23 -89 -4 -101
33 -157 12 -149 -56 5 -45 20 -56 103 -77 172 -42 232 -171 130 -280 -86 -91
-428 -36 -345 56 28 31 37 31 109 3 101 -40 185 -11 175 60 -5 35 -27 50 -103
69 -172 42 -232 171 -130 280 48 51 204 65 278 25z"/>
<path d="M2944 2649 c-128 -90 -24 -426 106 -341 100 65 58 372 -50 372 -6 0
-31 -14 -56 -31z"/>
<path d="M1850 3692 c-178 -271 -192 -982 -19 -982 56 0 59 3 53 80 -27 372
-14 579 44 710 76 175 78 228 8 236 -39 5 -62 -7 -86 -44z"/>
<path d="M4007 3711 c-6 -18 11 -84 40 -148 79 -176 100 -305 84 -522 -26
-355 -29 -331 38 -331 218 0 126 1001 -94 1026 -36 5 -59 -4 -68 -25z"/>
<path d="M2610 1435 c73 -350 557 -431 733 -123 18 32 39 87 47 123 l13 65
-403 0 -403 0 13 -65z"/>
</g>
</svg>
