<?xml version="1.0" standalone="no"?>
<!DOCTYPE svg PUBLIC "-//W3C//DTD SVG 20010904//EN"
 "http://www.w3.org/TR/2001/REC-SVG-20010904/DTD/svg10.dtd">
<svg version="1.0" xmlns="http://www.w3.org/2000/svg"
 width="900.000000pt" height="900.000000pt" viewBox="0 0 900.000000 900.000000"
 preserveAspectRatio="xMidYMid meet">
<metadata>
Created by potrace 1.10, written by Peter Selinger 2001-2011
</metadata>
<g transform="translate(0.000000,900.000000) scale(0.100000,-0.100000)"
fill="#000000" stroke="none">
<path d="M1933 6632 c-123 -125 -308 -424 -437 -705 -20 -44 -36 -84 -36 -91
0 -7 -4 -16 -9 -21 -10 -11 -94 -256 -111 -325 -145 -582 -145 -1058 0 -1640
17 -69 101 -314 111 -324 5 -6 9 -15 9 -22 0 -21 81 -194 154 -328 73 -134
102 -173 140 -186 77 -25 146 21 146 97 0 33 -11 61 -53 130 -133 222 -236
475 -312 763 -63 240 -95 607 -76 873 14 198 46 418 74 512 8 28 23 77 32 110
22 78 45 146 56 167 5 10 9 23 9 30 1 7 9 31 20 53 11 22 19 43 20 47 0 8 56
135 72 162 6 11 27 51 47 90 20 39 49 89 64 111 15 22 27 45 27 51 0 7 4 14 8
16 4 2 19 21 32 43 13 22 28 45 32 50 122 157 158 214 158 251 0 30 -7 48 -29
72 -26 28 -36 32 -80 32 -36 0 -56 -5 -68 -18z"/>
<path d="M6899 6618 c-22 -24 -29 -42 -29 -72 0 -37 36 -94 158 -251 4 -5 19
-28 32 -50 13 -22 28 -41 32 -43 4 -2 8 -9 8 -16 0 -7 12 -31 28 -52 15 -21
45 -75 67 -119 22 -44 43 -81 48 -83 4 -2 7 -8 7 -14 0 -5 14 -39 30 -75 17
-35 30 -67 30 -71 1 -4 9 -25 20 -47 11 -22 19 -47 20 -56 0 -9 3 -19 7 -23
25 -25 114 -365 134 -511 5 -38 14 -95 19 -125 16 -95 22 -388 11 -535 -14
-176 -45 -376 -76 -495 -44 -168 -110 -360 -162 -470 -83 -179 -123 -256 -176
-337 -51 -80 -29 -163 48 -184 58 -16 100 4 140 65 75 118 225 417 225 450 0
7 4 16 9 22 10 10 94 255 111 324 43 170 68 301 81 415 5 50 14 120 19 158 13
87 13 388 0 491 -5 45 -14 119 -20 166 -13 112 -39 246 -80 410 -17 69 -101
314 -111 325 -5 5 -9 14 -9 21 0 7 -16 47 -36 91 -129 281 -314 580 -436 705
-13 13 -33 18 -69 18 -44 0 -54 -4 -80 -32z"/>
<path d="M2390 6133 c-66 -28 -271 -384 -345 -598 -9 -27 -20 -57 -25 -65 -4
-9 -11 -31 -15 -50 -4 -19 -11 -41 -16 -50 -15 -27 -56 -221 -77 -365 -23
-155 -23 -512 0 -660 19 -123 41 -237 58 -305 14 -58 68 -220 80 -242 6 -10
10 -22 10 -27 0 -9 54 -130 88 -200 26 -51 57 -71 113 -71 100 0 129 87 70
206 -49 99 -71 152 -71 168 0 8 -4 18 -10 21 -5 3 -10 14 -10 23 0 9 -6 29
-14 43 -7 14 -16 43 -20 65 -5 21 -11 44 -16 49 -7 10 -13 33 -46 210 -62 321
-27 804 78 1085 3 8 14 38 23 65 36 101 103 243 157 333 21 34 38 66 38 71 0
5 6 16 13 23 6 7 29 39 51 71 35 51 38 62 34 105 -6 62 -35 94 -92 98 -22 2
-48 1 -56 -3z"/>
<path d="M6501 6133 c-33 -14 -54 -48 -59 -94 -4 -43 0 -54 46 -126 28 -43 56
-84 62 -91 12 -13 126 -237 148 -289 7 -17 22 -57 33 -90 11 -32 24 -67 29
-78 34 -78 83 -316 100 -485 12 -123 12 -357 0 -440 -21 -149 -57 -336 -69
-365 -5 -11 -19 -54 -32 -95 -13 -41 -26 -79 -31 -84 -4 -6 -8 -16 -8 -24 0
-15 -29 -83 -71 -165 -39 -76 -40 -145 -4 -182 36 -35 121 -36 152 -2 28 31
123 222 123 248 0 5 4 17 9 27 40 73 106 323 131 497 6 39 15 100 20 137 13
86 13 386 0 480 -24 185 -33 235 -69 388 -9 39 -38 134 -51 165 -4 11 -16 43
-25 70 -33 93 -92 222 -148 320 -60 105 -147 237 -169 259 -20 19 -91 31 -117
19z"/>
<path d="M4325 5926 c-5 -2 -46 -12 -90 -21 -44 -10 -84 -22 -89 -26 -6 -5
-16 -9 -24 -9 -31 0 -136 -53 -237 -118 -160 -105 -270 -242 -366 -457 -21
-49 -59 -191 -79 -302 -5 -26 -16 -84 -25 -128 -21 -110 -44 -229 -55 -295 -6
-30 -15 -71 -20 -90 -6 -19 -15 -64 -20 -100 -6 -36 -16 -105 -24 -155 -8 -49
-22 -134 -30 -188 -46 -289 -63 -388 -90 -512 -30 -138 -45 -201 -60 -250 -8
-27 -20 -68 -26 -90 -6 -22 -15 -49 -19 -60 -5 -11 -17 -42 -26 -70 -55 -158
-150 -336 -273 -515 -29 -41 -52 -78 -52 -82 0 -10 3527 -10 3534 0 2 4 -18
41 -46 82 -126 185 -218 358 -273 515 -9 28 -21 59 -25 70 -7 17 -29 88 -60
200 -16 57 -41 160 -51 215 -5 30 -17 91 -25 135 -15 82 -29 168 -59 355 -9
58 -23 146 -31 195 -8 50 -19 122 -24 160 -6 39 -13 77 -16 85 -4 8 -12 47
-20 85 -17 94 -41 215 -58 300 -8 39 -21 106 -30 150 -9 44 -20 102 -26 128
-10 49 -33 126 -49 162 -97 218 -204 351 -366 456 -98 64 -206 119 -235 119
-5 0 -18 4 -28 10 -52 29 -154 43 -322 46 -96 2 -179 2 -185 0z m-380 -1803
c11 -7 41 -22 68 -34 26 -12 47 -29 47 -37 0 -22 -47 -99 -63 -105 -8 -3 -26
1 -40 8 -40 21 -132 45 -170 45 -108 0 -174 -103 -107 -170 18 -18 102 -43
190 -55 67 -10 123 -39 163 -86 43 -50 72 -133 64 -188 -6 -45 -50 -138 -75
-158 -39 -31 -105 -55 -169 -61 -76 -8 -212 3 -227 18 -6 6 -17 10 -25 10 -24
0 -131 72 -131 89 0 17 67 101 81 101 5 0 26 -11 47 -24 121 -76 298 -72 336
9 22 46 20 69 -8 102 -26 31 -75 47 -180 58 -60 7 -133 39 -174 77 -33 32 -72
121 -72 165 0 49 25 119 57 161 25 33 83 75 119 85 33 10 248 1 269 -10z m703
-16 c58 -37 100 -83 126 -137 19 -42 21 -61 21 -260 0 -191 -2 -219 -19 -255
-28 -59 -94 -124 -153 -151 -70 -33 -192 -34 -260 -3 -58 26 -141 104 -150
138 -3 14 -11 32 -17 40 -7 9 -11 85 -11 225 0 179 3 218 18 254 29 71 110
149 182 174 11 4 65 6 120 5 89 -3 104 -6 143 -30z m712 7 c74 -29 102 -52 94
-77 -9 -30 -51 -84 -71 -91 -9 -4 -25 0 -37 7 -33 22 -121 47 -162 47 -56 0
-111 -28 -124 -63 -33 -96 20 -139 198 -161 159 -20 249 -138 227 -296 -9 -64
-49 -124 -111 -164 -49 -31 -49 -31 -189 -31 -113 0 -148 3 -180 18 -59 27
-96 48 -121 70 -21 18 -22 22 -9 46 7 14 27 39 44 56 26 24 35 27 49 18 59
-41 153 -73 214 -73 119 0 187 76 143 160 -16 32 -74 53 -178 65 -32 3 -70 13
-85 21 -15 7 -31 14 -37 14 -17 0 -82 65 -101 101 -14 25 -19 56 -19 114 0 70
3 85 26 120 37 56 96 105 144 118 43 13 240 -1 285 -19z"/>
<path d="M4416 3977 c-70 -40 -77 -57 -83 -208 -6 -151 7 -261 34 -291 26 -29
88 -58 123 -58 43 0 104 33 132 72 22 32 23 40 23 220 0 174 -1 188 -21 215
-29 38 -92 73 -134 73 -19 0 -53 -10 -74 -23z"/>
<path d="M2822 5597 c-32 -19 -100 -133 -136 -232 -10 -27 -24 -63 -31 -80
-31 -72 -51 -150 -83 -320 -23 -122 -23 -472 0 -595 57 -300 80 -340 193 -331
38 3 73 36 81 75 3 18 -2 61 -11 96 -64 252 -79 430 -55 645 12 111 50 277 75
332 8 17 15 36 15 42 0 6 4 19 10 29 5 9 32 65 60 124 57 118 60 156 15 198
-29 27 -100 36 -133 17z"/>
<path d="M6060 5603 c-30 -11 -60 -47 -66 -79 -5 -27 4 -54 46 -141 28 -59 56
-116 61 -125 5 -10 9 -23 9 -29 0 -6 7 -25 15 -42 32 -70 65 -233 78 -384 16
-201 -1 -381 -58 -590 -34 -124 7 -182 122 -175 49 4 85 66 114 200 38 172 43
222 43 432 0 210 -5 260 -43 432 -13 60 -39 144 -57 185 -8 17 -14 36 -14 42
0 6 -4 19 -9 29 -6 9 -28 55 -51 102 -45 94 -64 122 -97 139 -23 11 -67 13
-93 4z"/>
<path d="M3903 2193 c18 -182 112 -335 265 -436 82 -54 164 -83 262 -91 84 -8
202 6 270 31 106 39 256 166 302 255 44 86 78 200 78 259 l0 29 -591 0 -591 0
5 -47z"/>
<path d="M160 2085 c-10 -13 -9 -15 9 -15 12 0 21 6 21 15 0 8 -4 15 -9 15 -5
0 -14 -7 -21 -15z"/>
<path d="M150 2010 c0 -5 9 -10 19 -10 11 0 23 5 26 10 4 6 -5 10 -19 10 -14
0 -26 -4 -26 -10z"/>
<path d="M163 1913 c-20 -8 -15 -23 7 -23 11 0 20 7 20 15 0 15 -6 17 -27 8z"/>
<path d="M145 1841 c-3 -6 11 -18 31 -27 30 -15 37 -15 45 -3 5 8 9 20 9 27 0
14 -26 16 -35 2 -4 -7 -12 -7 -25 0 -12 6 -21 6 -25 1z"/>
<path d="M162 1718 c6 -18 28 -21 28 -4 0 9 -7 16 -16 16 -9 0 -14 -5 -12 -12z"/>
<path d="M151 1661 c-10 -7 -10 -10 -1 -16 6 -4 16 -3 22 3 13 13 -4 23 -21
13z"/>
<path d="M154 1553 c3 -8 6 -17 6 -19 0 -10 22 -2 39 15 19 19 18 19 -16 19
-26 0 -33 -3 -29 -15z"/>
<path d="M204 1457 c-7 -29 -8 -50 -2 -53 16 -10 19 2 16 52 l-3 49 -11 -48z"/>
<path d="M155 1360 c-8 -13 20 -24 36 -15 8 6 7 10 -2 16 -18 11 -26 11 -34
-1z"/>
<path d="M192 1253 c5 -25 28 -28 28 -4 0 12 -6 21 -16 21 -9 0 -14 -7 -12
-17z"/>
<path d="M193 1028 c2 -7 10 -13 17 -13 7 0 15 6 18 13 2 7 -5 12 -18 12 -13
0 -20 -5 -17 -12z"/>
<path d="M180 941 c0 -14 18 -23 31 -15 8 4 7 9 -2 15 -18 11 -29 11 -29 0z"/>
<path d="M155 789 c-11 -16 -3 -18 45 -12 34 5 40 8 25 14 -29 11 -63 10 -70
-2z"/>
<path d="M170 705 c-10 -12 -10 -15 4 -15 9 0 16 7 16 15 0 8 -2 15 -4 15 -2
0 -9 -7 -16 -15z"/>
<path d="M197 553 c-4 -3 -7 -15 -7 -25 0 -26 24 -17 28 10 3 21 -8 29 -21 15z"/>
<path d="M136 461 c-3 -5 10 -12 30 -15 35 -7 74 -1 74 12 0 11 -98 14 -104 3z"/>
<path d="M170 310 c-33 -6 -34 -7 -10 -14 14 -4 36 -3 49 2 33 12 7 20 -39 12z"/>
<path d="M185 160 c-3 -5 3 -10 14 -10 12 0 21 5 21 10 0 6 -6 10 -14 10 -8 0
-18 -4 -21 -10z"/>
</g>
</svg>
