<?xml version="1.0" encoding="UTF-8"?>
<svg version="1.1" xmlns="http://www.w3.org/2000/svg" width="1000" height="1000">
<path d="M0 0 C330 0 660 0 1000 0 C1000 330 1000 660 1000 1000 C670 1000 340 1000 0 1000 C0 670 0 340 0 0 Z " fill="#FEFEFE" transform="translate(0,0)"/>
<path d="M0 0 C1.60799882 1.36734594 3.18951625 2.76616767 4.75 4.1875 C5.24951172 4.63931641 5.74902344 5.09113281 6.26367188 5.55664062 C29.80832052 27.12274737 38.83248385 54.5551078 44.75 85.1875 C44.95625 86.25000977 45.1625 87.31251953 45.375 88.40722656 C46.42465304 93.82442029 47.46337756 99.24361715 48.49609375 104.6640625 C49.72981445 111.11722238 51.01627516 117.55914974 52.3125 124 C52.93165495 127.09361743 53.5499954 130.18739633 54.16796875 133.28125 C54.54094645 135.14363531 54.91577697 137.0056511 55.29296875 138.8671875 C57.63860624 150.47192032 59.49196882 162.08655604 61.10742188 173.81494141 C62.48961746 183.70244283 64.11030282 193.53817014 65.8125 203.375 C65.93647156 204.09181946 66.06044312 204.80863892 66.18817139 205.54718018 C66.79341768 209.03941814 67.40350573 212.53075863 68.01879883 216.02124023 C68.51177012 218.81879588 68.99508606 221.61778079 69.47143555 224.41821289 C71.18493332 234.42739143 73.17858115 244.34965215 75.4375 254.25 C75.60951935 255.00452454 75.7815387 255.75904907 75.95877075 256.53643799 C83.91048307 291.12709137 97.23403166 323.94524225 117.79931641 352.99389648 C118.41339355 353.86216064 119.0274707 354.7304248 119.66015625 355.625 C120.20808838 356.38683594 120.75602051 357.14867187 121.32055664 357.93359375 C122.75 360.1875 122.75 360.1875 124.75 365.1875 C-6.59 365.1875 -137.93 365.1875 -273.25 365.1875 C-271.67617972 361.25294929 -270.38097963 358.69530018 -268.01171875 355.328125 C-253.7019755 334.64961333 -242.35681032 313.53136428 -234.12988281 289.71875 C-233.39401474 287.60180212 -232.62786774 285.50260415 -231.8359375 283.40625 C-227.01123527 270.08384642 -224.31866395 255.9941805 -221.25 242.1875 C-220.99436279 241.06988281 -220.73872559 239.95226562 -220.4753418 238.80078125 C-218.47786283 229.86492982 -217.03493619 220.8870154 -215.68817139 211.83572388 C-215.04493385 207.51537268 -214.38697143 203.19725814 -213.73046875 198.87890625 C-213.60210632 198.03245041 -213.4737439 197.18599457 -213.3414917 196.31388855 C-211.9003444 186.83615817 -210.32244014 177.38309088 -208.71337891 167.93261719 C-208.23079089 165.07370269 -207.76040189 162.21299214 -207.29296875 159.3515625 C-203.63905256 137.02919016 -199.53155295 114.78611513 -194.95654297 92.63378906 C-194.31737782 89.5161473 -193.69430464 86.39559566 -193.07325745 83.27430725 C-187.34984749 54.68685439 -179.13470657 30.29371104 -158.25 9.1875 C-157.58484375 8.46175781 -156.9196875 7.73601562 -156.234375 6.98828125 C-141.98041913 -8.25386904 -119.57512141 -18.86996232 -99.25 -22.8125 C-98.36957031 -22.99683594 -97.48914063 -23.18117188 -96.58203125 -23.37109375 C-62.92001112 -29.55739656 -27.12944329 -20.5854402 0 0 Z " fill="#E3191A" transform="translate(574.25,362.8125)"/>
<path d="M0 0 C8.88023669 4.34564774 15.10650791 14.12407345 20.625 22.0625 C21.21909668 22.91682617 21.81319336 23.77115234 22.42529297 24.65136719 C49.2384121 63.83054731 67.36592101 107.60234982 77 154 C77.14920898 154.70108887 77.29841797 155.40217773 77.45214844 156.12451172 C81.8833567 177.10758614 83.55912707 198.08609656 83.4375 219.5 C83.43343643 221.19246857 83.43343643 221.19246857 83.42929077 222.91912842 C83.36158347 241.6033778 82.194039 259.57610619 79 278 C78.82339844 279.10730469 78.64679688 280.21460938 78.46484375 281.35546875 C71.85929391 322.70131774 56.37706383 363.52007315 35.0625 399.5625 C34.44483765 400.63274414 34.44483765 400.63274414 33.81469727 401.72460938 C30.8827336 406.46280381 28.07638342 408.66556221 23 411 C18.72903613 411.59943353 16.66002461 411.33648313 12.8125 409.375 C8.7523691 405.94644502 6.228317 403.15603892 5.65625 397.75390625 C6.06013395 393.34330991 7.59841149 390.43085253 9.875 386.75 C10.70917946 385.32938424 11.54112366 383.90745412 12.37109375 382.484375 C12.80534668 381.74767578 13.23959961 381.01097656 13.68701172 380.25195312 C41.54153817 332.47765933 55.23965338 278.14826771 55.13037109 223.09521484 C55.12499938 219.87462686 55.13035106 216.65417758 55.13671875 213.43359375 C55.14132686 200.71540537 54.96743134 188.32182215 52.5234375 175.80078125 C51.99203989 172.95740747 51.58550551 170.1148887 51.1875 167.25 C43.69733365 119.21156468 23.8941092 73.94899748 -4.71044922 34.77050781 C-7.01246593 31.60991993 -9.28680841 28.42956477 -11.5625 25.25 C-11.99240234 24.65300293 -12.42230469 24.05600586 -12.86523438 23.44091797 C-16.36381534 18.56139305 -17.51070022 16.12840268 -17 10 C-13.3405068 2.82176333 -8.21863374 -1.17409053 0 0 Z " fill="#E3191A" transform="translate(780,258)"/>
<path d="M0 0 C3.65820752 2.07272646 6.79248882 4.894462 8 9 C8.74872653 13.77313163 8.02252195 16.36079447 5.34765625 20.22265625 C4.80189941 21.01389893 4.25614258 21.8051416 3.69384766 22.62036133 C1.66143609 25.47563886 -0.40027818 28.30650257 -2.48828125 31.12133789 C-22.02175167 57.53454022 -36.84708523 86.12911817 -48 117 C-48.31549805 117.86786133 -48.63099609 118.73572266 -48.95605469 119.62988281 C-55.23930614 137.23600166 -58.78496469 155.83947015 -61.8125 174.25 C-61.92424561 174.91386719 -62.03599121 175.57773437 -62.15112305 176.26171875 C-73.18852454 248.56418596 -56.09557913 325.79567415 -17.875 387.75 C-15.35788893 392.02254314 -13.88888893 394.94949513 -15 400 C-17.434751 404.77585774 -20.20234134 407.60117067 -25 410 C-29.37843968 410.85817418 -32.04826984 410.52239687 -35.99609375 408.35546875 C-41.66271923 403.91206802 -44.59088676 397.22688733 -48 391 C-48.4945166 390.10522949 -48.9890332 389.21045898 -49.49853516 388.28857422 C-58.25374473 372.3304972 -65.50472147 355.99457292 -72 339 C-72.31549805 338.18595703 -72.63099609 337.37191406 -72.95605469 336.53320312 C-79.91901138 318.44073338 -84.06885006 299.76573367 -87.25 280.6875 C-87.37487793 279.94253265 -87.49975586 279.19756531 -87.62841797 278.43002319 C-88.4809736 273.29522953 -89.26831065 268.15338489 -90 263 C-90.10105042 262.29507416 -90.20210083 261.59014832 -90.30621338 260.86386108 C-92.15349667 247.5713868 -92.39901407 234.34319528 -92.375 220.9375 C-92.37478851 219.84449585 -92.37457703 218.7514917 -92.37435913 217.62536621 C-92.32511274 192.01257329 -90.04226829 167.34496387 -83.62792969 142.47363281 C-82.99935009 139.99743976 -82.41971813 137.5141301 -81.8515625 135.0234375 C-75.61489244 108.10728249 -64.92800338 82.3703048 -52 58 C-51.61875977 57.28005859 -51.23751953 56.56011719 -50.84472656 55.81835938 C-45.13951202 45.12510472 -38.92428328 34.94304439 -32 25 C-31.58218262 24.39140137 -31.16436523 23.78280273 -30.73388672 23.15576172 C-12.50301401 -3.38036427 -12.50301401 -3.38036427 0 0 Z " fill="#E41A1B" transform="translate(229,259)"/>
<path d="M0 0 C0.82242188 -0.01933594 1.64484375 -0.03867187 2.4921875 -0.05859375 C7.73656017 0.92958923 10.95014044 3.9256674 13.984375 8.1328125 C14.96219391 9.59995923 15.92505591 11.07715304 16.875 12.5625 C17.39231689 13.3572876 17.90963379 14.1520752 18.44262695 14.97094727 C23.75322765 23.23522869 28.60536878 31.71757975 33.125 40.4375 C33.5075293 41.17516602 33.89005859 41.91283203 34.28417969 42.67285156 C41.16000397 56.12555125 46.31907135 70.13111831 51.125 84.4375 C51.54652344 85.68789063 51.96804688 86.93828125 52.40234375 88.2265625 C54.74133388 95.79775145 56.22486676 103.54350671 57.75 111.3125 C57.95657227 112.36429443 58.16314453 113.41608887 58.37597656 114.49975586 C61.32094894 130.0925466 62.53480034 145.16232827 62.5 161 C62.49945618 161.93648376 62.49891235 162.87296753 62.49835205 163.83782959 C62.42969039 189.72547331 59.02474277 214.43410198 52.125 239.4375 C51.82190918 240.55801758 51.82190918 240.55801758 51.51269531 241.70117188 C39.19537568 286.51840716 39.19537568 286.51840716 26.125 295.4375 C22.4565241 296.6603253 19.98840281 296.82384028 16.125 296.4375 C11.86206625 294.29316713 8.92395871 291.9223459 7.125 287.4375 C5.61495431 281.05074937 7.49403152 276.09819208 10.5 270.5 C20.02351315 252.75133802 26.40138993 233.19750412 30.125 213.4375 C30.31819824 212.48085449 30.51139648 211.52420898 30.71044922 210.53857422 C38.59919677 170.41221831 36.09541046 127.18780818 23.125 88.4375 C22.75084961 87.28894531 22.75084961 87.28894531 22.36914062 86.1171875 C15.01657803 63.81378424 4.20047061 43.02289736 -9.0703125 23.69677734 C-12.39418671 18.8260462 -13.37763235 15.36856177 -12.875 9.4375 C-9.81209242 3.74924307 -6.69644867 0.01043061 0 0 Z " fill="#E31A1B" transform="translate(727.875,315.5625)"/>
<path d="M0 0 C4.59457298 1.79787638 6.77864953 4.6395713 9 9 C10.28389286 15.88633441 7.88762524 19.41822944 4.04296875 25.05859375 C3.03169922 26.51458984 3.03169922 26.51458984 2 28 C-12.47588296 50.10129454 -23.09523012 73.55169184 -30 99 C-30.52207031 100.85238281 -30.52207031 100.85238281 -31.0546875 102.7421875 C-31.94491718 106.06157104 -32.75733115 109.37578395 -33.49853516 112.73046875 C-33.840348 114.27744643 -34.19472657 115.82168841 -34.56005859 117.36328125 C-41.91918256 149.41690841 -40.56913096 186.11099137 -33 218 C-32.79713379 218.87591797 -32.59426758 219.75183594 -32.38525391 220.65429688 C-31.14846944 225.84941157 -29.66260375 230.92663057 -28 236 C-27.62536621 237.16885742 -27.62536621 237.16885742 -27.24316406 238.36132812 C-21.55956635 259.0798061 -21.55956635 259.0798061 -11 277 C-10.43292113 281.93637504 -10.4856816 285.91201876 -12.625 290.4375 C-16.24337673 294.34153805 -19.22870837 295.77858855 -24.5 296.4375 C-28.8368235 295.89539706 -30.70157068 294.8681994 -34 292 C-37.96488014 286.6174516 -40.71982776 280.62952052 -43.3125 274.5 C-43.69639893 273.5934668 -44.08029785 272.68693359 -44.47583008 271.75292969 C-72.34416664 204.62155967 -74.13540104 128.67883442 -47 61 C-40.15516623 44.61415524 -31.91322713 28.74039919 -22 14 C-21.61054199 13.42040527 -21.22108398 12.84081055 -20.81982422 12.24365234 C-14.73460754 3.30280325 -11.28525395 -1.32120046 0 0 Z " fill="#E31A1B" transform="translate(276,316)"/>
<path d="M0 0 C43.56 0 87.12 0 132 0 C132 19.65133713 126.4361808 33.64622636 113 48 C100.54714206 59.98929977 83.31974596 67.07026579 66 67.3125 C64.33199981 67.232476 62.66482263 67.13036132 61 67 C60.28199219 66.979375 59.56398438 66.95875 58.82421875 66.9375 C42.2354599 65.96704244 25.94700669 56.03021875 15 44 C4.37603947 30.4292475 0 17.40166134 0 0 Z " fill="#E3191A" transform="translate(434,749)"/>
<path d="M0 0 C6.45322186 4.54991559 10.97014115 10.73791107 13.3125 18.3125 C13.74218609 21.69617646 13.75704286 25.04533981 13.74609375 28.453125 C13.7513356 29.41595398 13.75657745 30.37878296 13.76197815 31.37078857 C13.76837838 33.40131673 13.76708736 35.43188207 13.75854492 37.46240234 C13.75006361 40.53942393 13.77877867 43.61456899 13.81054688 46.69140625 C13.85725169 59.51093366 13.65402156 70.8199143 4.30078125 80.59375 C-3.57451001 87.4014674 -12.43129736 89.77597191 -22.69921875 89.55859375 C-32.16506168 88.77905374 -39.73052637 84.09360814 -46.5 77.625 C-53.45147482 67.09848099 -53.3136844 56.43976734 -53.20898438 44.2331543 C-53.18752102 41.25291808 -53.20886788 38.27508529 -53.234375 35.29492188 C-53.23173184 33.3723906 -53.22660709 31.44986079 -53.21875 29.52734375 C-53.22684692 28.65101791 -53.23494385 27.77469208 -53.24328613 26.87181091 C-53.10803349 17.81123414 -50.24794286 9.72715524 -43.6875 3.3125 C-30.29212758 -7.31501769 -14.77905564 -9.0398557 0 0 Z " fill="#FDFAF9" transform="translate(519.6875,544.6875)"/>
<path d="M0 0 C3.60906817 1.35801338 6.36511255 3.28319159 8.9375 6.1875 C11.16829574 12.09254755 10.89332809 15.93983101 8.41796875 21.6484375 C6.69779849 25.12597782 4.87148928 28.54696883 3.05175781 31.97314453 C-1.54668371 40.83485798 -5.10822335 50.1205191 -7.46728516 59.82128906 C-7.84875382 61.38142948 -8.24610121 62.93772095 -8.65380859 64.49121094 C-16.3736469 94.41431419 -15.66913235 127.99991248 -5.76953125 157.34375 C-4.3648436 162.19241803 -3.59795036 167.23612346 -5.953125 171.87890625 C-8.44955969 175.1574518 -11.02057304 177.07455187 -15 178 C-19.96605526 178.64078132 -22.77928474 178.64070446 -26.8125 175.5625 C-29.99537274 172.50983569 -31.27460665 169.46272261 -32.39453125 165.24609375 C-32.94283065 162.97947379 -32.94283065 162.97947379 -33.94921875 160.875 C-35.53154903 156.54565025 -36.20814057 152.09403934 -37 147.5625 C-37.165 146.65306641 -37.33 145.74363281 -37.5 144.80664062 C-38.02307529 141.87455845 -38.5155495 138.93870385 -39 136 C-39.18385254 134.92645264 -39.36770508 133.85290527 -39.55712891 132.74682617 C-41.0229355 123.542481 -41.40135539 114.48255075 -41.375 105.1875 C-41.37412384 104.42609711 -41.37324768 103.66469421 -41.37234497 102.88021851 C-41.24617688 69.3993978 -33.12255674 33.04531089 -14 5 C-9.30983005 0.62961437 -6.44934851 -0.52863512 0 0 Z " fill="#E31A1A" transform="translate(324,374)"/>
<path d="M0 0 C5.37963281 3.46687448 7.95038444 8.62231115 10.6875 14.25 C11.03482178 14.96027344 11.38214355 15.67054688 11.73999023 16.40234375 C12.77395052 18.53451502 13.79440614 20.67271676 14.8125 22.8125 C15.34230469 23.90691406 15.87210938 25.00132812 16.41796875 26.12890625 C35.3876751 67.57746034 36.63874998 115.97399399 24.9375 159.5625 C24.71755371 160.40216309 24.49760742 161.24182617 24.27099609 162.10693359 C22.6349078 167.65823246 20.22139788 171.96928834 15.8125 175.8125 C12.08650457 177.05449848 8.68270783 177.34758555 4.8125 176.8125 C0.85056501 174.71940227 -1.79124274 172.57903081 -4.1875 168.8125 C-5.29323208 163.40337821 -4.18950456 158.38829006 -2.4375 153.25 C10.35358944 113.82603505 6.14364037 66.69294642 -12.4375 29.875 C-14.2207212 26.44824689 -16.05861036 23.05110804 -17.89453125 19.65234375 C-19.74891581 15.57942056 -19.89532106 12.2009906 -19.1875 7.8125 C-15.05486984 -0.45276032 -8.8114806 -3.28270846 0 0 Z " fill="#E41A1B" transform="translate(685.1875,375.1875)"/>
<path d="M0 0 C-1.55701931 4.67105792 -4.08447373 8.08705685 -7 12 C-9.20498957 11.51955502 -11.16033028 10.93020588 -13.234375 10.02734375 C-21.19083754 6.58036697 -29.42375692 5.54194811 -38 7 C-40.96841876 8.80647389 -43.42080599 10.84161198 -45 14 C-45.47239631 19.652704 -45.47239631 19.652704 -43.5 24.8125 C-38.00485838 29.62074891 -31.0560483 30.45942673 -24.0625 31.375 C-14.49784371 32.8215909 -7.31310228 35.29348954 -1.21875 43.19921875 C3.31533237 49.8986161 3.85549555 56.12354101 3 64 C1.54928377 70.94336508 -0.92317325 76.21229867 -6.6328125 80.5625 C-17.59596885 87.21999429 -31.02020647 87.91339327 -43.359375 85.1171875 C-51.55517758 82.92998751 -58.45202457 79.46189297 -65 74 C-63.63629701 71.00779732 -62.05091917 68.70973471 -59.875 66.25 C-59.33617187 65.63640625 -58.79734375 65.0228125 -58.2421875 64.390625 C-57.62730469 63.70226562 -57.62730469 63.70226562 -57 63 C-53.92681528 64.15244427 -51.03074924 65.48494008 -48.125 67 C-39.71181746 71.18317796 -30.48723496 72.79789083 -21.265625 70.2421875 C-17.36642542 68.62389225 -13.69109612 67.05863069 -12 63 C-11.44384191 58.51365808 -11.52125882 54.89632192 -14 51 C-19.80342787 46.4996917 -27.95030828 46.04095035 -34.99584961 45.21459961 C-44.20999697 44.02235823 -51.23182175 40.38570972 -57 33 C-61.34958471 26.27511016 -60.73136407 17.66671305 -60 10 C-58.3373488 3.3075675 -53.57105103 -1.19513363 -48 -5 C-32.26906057 -12.77997548 -14.31889194 -9.24288263 0 0 Z " fill="#FCF9F8" transform="translate(607,548)"/>
<path d="M0 0 C-1.72312209 4.66209202 -4.04444161 8.03332953 -7 12 C-9.20498957 11.51955502 -11.16033028 10.93020588 -13.234375 10.02734375 C-21.19083754 6.58036697 -29.42375692 5.54194811 -38 7 C-40.96841876 8.80647389 -43.42080599 10.84161198 -45 14 C-45.46145874 18.61458744 -45.74619403 21.6412076 -42.8125 25.375 C-38.20725805 29.67322582 -34.03580401 30.24477161 -27.875 30.875 C-18.13961072 32.0419131 -8.52594322 34.15191763 -2 42 C3.16717099 49.2445578 4.12689997 56.26384214 3 65 C1.26418597 72.74108367 -2.45887881 77.59425421 -9 82 C-19.0297751 87.69825797 -33.89986684 87.60344438 -44.9375 84.8125 C-52.26826314 82.44701783 -59.23996399 79.18403241 -65 74 C-63.63629701 71.00779732 -62.05091917 68.70973471 -59.875 66.25 C-59.33617187 65.63640625 -58.79734375 65.0228125 -58.2421875 64.390625 C-57.62730469 63.70226562 -57.62730469 63.70226562 -57 63 C-52.44904551 64.77578079 -48.04515956 66.81106966 -43.62109375 68.87890625 C-36.24871096 72.0322205 -27.08897604 72.3246251 -19.4375 69.875 C-15.43062625 67.6894325 -13.90831515 66.13468282 -12 62 C-11.57330525 57.87528406 -11.36520936 54.3533699 -14 51 C-18.82711467 48.11261546 -23.16832768 47.33445406 -28.625 46.625 C-38.75184051 45.09727495 -48.64205739 42.88795753 -55.6640625 34.85546875 C-61.03727981 27.39266693 -60.85301143 18.94191294 -60 10 C-58.33020573 3.27881552 -53.57972948 -1.17362301 -48 -5 C-32.47267936 -14.13847517 -14.54531947 -7.96897822 0 0 Z " fill="#FCF9F8" transform="translate(452,548)"/>
<path d="M0 0 C5.40836151 2.76374421 8.89421299 7.70607648 10.7734375 13.34375 C10.88201665 15.83632586 10.93746078 18.30005806 10.94140625 20.79296875 C10.94639885 21.89013969 10.94639885 21.89013969 10.95149231 23.00947571 C10.95655342 24.55863823 10.95890089 26.10781164 10.95874023 27.65698242 C10.96091342 30.00523362 10.97904037 32.3530046 10.99804688 34.70117188 C11.00098379 36.21093591 11.00296659 37.72070215 11.00390625 39.23046875 C11.01109177 39.9234758 11.01827728 40.61648285 11.02568054 41.33049011 C10.99061958 48.97050941 9.7345597 55.24886653 4.3984375 60.8671875 C-0.20040219 65.04594088 -4.64687498 65.9530097 -10.6953125 65.76171875 C-16.10501904 64.86844931 -19.76697104 61.76493116 -23.6015625 58.03125 C-28.14393774 50.51886018 -27.53735381 41.94679452 -27.48730469 33.45288086 C-27.47656996 31.28275725 -27.48725058 29.11345807 -27.5 26.94335938 C-27.49867851 25.54426903 -27.49611632 24.1451792 -27.4921875 22.74609375 C-27.48993164 21.49304443 -27.48767578 20.23999512 -27.48535156 18.94897461 C-26.97955853 11.9027051 -25.17518301 7.40745471 -20.2265625 2.34375 C-14.32337748 -1.93377305 -6.91404468 -2.0378237 0 0 Z " fill="#E41A1B" transform="translate(508.2265625,554.65625)"/>
<path d="M0 0 C4.70588235 0.70588235 4.70588235 0.70588235 6 2 C6.04080783 3.99958364 6.04254356 6.00045254 6 8 C5.01 8 4.02 8 3 8 C2.67 7.34 2.34 6.68 2 6 C1.01 7.485 1.01 7.485 0 9 C0.804375 9.309375 1.60875 9.61875 2.4375 9.9375 C5 11 5 11 6 12 C6.04080783 13.99958364 6.04254356 16.00045254 6 18 C6.66 18 7.32 18 8 18 C9.52634923 21.05269846 8.83794444 23.75845689 8.5625 27.125 C8.46066406 28.40632812 8.35882812 29.68765625 8.25390625 31.0078125 C8.17011719 31.99523437 8.08632813 32.98265625 8 34 C7.34 34 6.68 34 6 34 C6.96776098 37.79547921 6.96776098 37.79547921 9 41 C9.04092937 43.33297433 9.04241723 45.66705225 9 48 C8.34 48 7.68 48 7 48 C7 48.66 7 49.32 7 50 C6.34 50 5.68 50 5 50 C5 50.66 5 51.32 5 52 C5.99 52.33 6.98 52.66 8 53 C8.96052 57.8026 9.47886987 62.13148967 9 67 C6.13211152 69.96040101 3.33402612 70.20708046 -0.625 70.375 C-3.26110492 70.40199084 -4.51831928 70.37663449 -6.61206055 68.73950195 C-8.33973755 66.57420755 -8.35126294 65.50935823 -8.29296875 62.76953125 C-8.28330078 61.96708984 -8.27363281 61.16464844 -8.26367188 60.33789062 C-8.23853516 59.50451172 -8.21339844 58.67113281 -8.1875 57.8125 C-8.17396484 56.96751953 -8.16042969 56.12253906 -8.14648438 55.25195312 C-8.11115799 53.16769616 -8.05735139 51.08376723 -8 49 C-7.01 49 -6.02 49 -5 49 C-5.350625 48.443125 -5.70125 47.88625 -6.0625 47.3125 C-7.21845993 44.46113217 -6.80967438 42.91482778 -6 40 C-4.515 39.505 -4.515 39.505 -3 39 C-3.845625 38.278125 -4.69125 37.55625 -5.5625 36.8125 C-8 34 -8 34 -7.8125 31.1875 C-7.544375 30.465625 -7.27625 29.74375 -7 29 C-6.34 29 -5.68 29 -5 29 C-5 28.34 -5 27.68 -5 27 C-5.99 26.67 -6.98 26.34 -8 26 C-8 20.72 -8 15.44 -8 10 C-7.01 9.67 -6.02 9.34 -5 9 C-5 8.34 -5 7.68 -5 7 C-5.66 7 -6.32 7 -7 7 C-7 5.02 -7 3.04 -7 1 C-6.34 1 -5.68 1 -5 1 C-5 2.32 -5 3.64 -5 5 C-4.01 5 -3.02 5 -2 5 C-1.855625 4.360625 -1.71125 3.72125 -1.5625 3.0625 C-1 1 -1 1 0 0 Z M8 11 C8.33 11 8.66 11 9 11 C9 13.31 9 15.62 9 18 C8.67 18 8.34 18 8 18 C8 15.69 8 13.38 8 11 Z " fill="#DEDEDE" transform="translate(23,762)"/>
<path d="M0 0 C-0.89456869 6.64536741 -0.89456869 6.64536741 -1.6875 9.3125 C-1.790625 9.869375 -1.89375 10.42625 -2 11 C-1.34 11.66 -0.68 12.32 0 13 C0.2117572 15.47388875 0.30399471 17.83311124 0.30078125 20.30859375 C0.30506638 21.03111832 0.3093515 21.75364288 0.31376648 22.49806213 C0.31951237 24.02709912 0.32000812 25.55616344 0.31567383 27.08520508 C0.31251671 29.42511674 0.33595758 31.76376067 0.36132812 34.10351562 C0.36360139 35.58854007 0.36430449 37.07356792 0.36328125 38.55859375 C0.372491 39.2586705 0.38170074 39.95874725 0.39118958 40.68003845 C0.34475918 45.55507991 0.34475918 45.55507991 -1.52270508 47.96508789 C-2.25396606 48.47736938 -2.25396606 48.47736938 -3 49 C-2.34 49.33 -1.68 49.66 -1 50 C-1 51.65 -1 53.3 -1 55 C-6.65020618 54.39891424 -11.66164461 52.92471317 -17 51 C-17.25 48.6875 -17.25 48.6875 -17 46 C-16.34 45.54625 -15.68 45.0925 -15 44.625 C-14.34 44.08875 -13.68 43.5525 -13 43 C-12.66619186 39.37436186 -12.66619186 39.37436186 -13 36 C-14.65 36 -16.3 36 -18 36 C-17.67 34.68 -17.34 33.36 -17 32 C-14.525 31.505 -14.525 31.505 -12 31 C-12 30.34 -12 29.68 -12 29 C-12.66 29 -13.32 29 -14 29 C-13.8453125 27.3603125 -13.8453125 27.3603125 -13.6875 25.6875 C-13.790625 24.470625 -13.89375 23.25375 -14 22 C-16.3726974 19.99135641 -16.3726974 19.99135641 -19 19 C-18.67 17.68 -18.34 16.36 -18 15 C-16.68 14.67 -15.36 14.34 -14 14 C-13.23681405 9.17867673 -13.23681405 9.17867673 -13.0625 4.3125 C-12.98971276 1.61937205 -12.56571188 0.19199663 -11 -2 C-7.07040122 -4.18311043 -3.6835409 -1.77093312 0 0 Z " fill="#EAEAEA" transform="translate(32,930)"/>
<path d="M0 0 C0 2.64 0 5.28 0 8 C0.66 8 1.32 8 2 8 C3.92281386 11.84562773 3.06893109 15.65534456 2.25 19.75 C1 23 1 23 -1.125 24.4375 C-1.74375 24.623125 -2.3625 24.80875 -3 25 C-2.34 25.66 -1.68 26.32 -1 27 C-2.65 27.33 -4.3 27.66 -6 28 C-6 27.34 -6 26.68 -6 26 C-7.32 26.33 -8.64 26.66 -10 27 C-10 26.34 -10 25.68 -10 25 C-10.66 24.67 -11.32 24.34 -12 24 C-11.34 24 -10.68 24 -10 24 C-10 23.34 -10 22.68 -10 22 C-10.99 22 -11.98 22 -13 22 C-13.98757063 17.92627115 -14.38046243 14.18508673 -14 10 C-12 7.5625 -12 7.5625 -10 6 C-10.99 5.34 -11.98 4.68 -13 4 C-13 2.68 -13 1.36 -13 0 C-4.57142857 -1.28571429 -4.57142857 -1.28571429 0 0 Z " fill="#DBDBDB" transform="translate(29,835)"/>
<path d="M0 0 C3 0.25 3 0.25 5 2.25 C5.7166207 4.56847874 6.38242027 6.90319703 7 9.25 C7.33 10.24 7.66 11.23 8 12.25 C7.0625 14.4375 7.0625 14.4375 6 16.25 C6.66 16.91 7.32 17.57 8 18.25 C8.33333333 23.58333333 8.33333333 23.58333333 7 26.25 C5.35 26.25 3.7 26.25 2 26.25 C2 24.27 2 22.29 2 20.25 C1.34 19.92 0.68 19.59 0 19.25 C-0.226875 20.054375 -0.45375 20.85875 -0.6875 21.6875 C-2 24.25 -2 24.25 -4.5 25.1875 C-5.325 25.208125 -6.15 25.22875 -7 25.25 C-9 23.25 -9 23.25 -9.1875 19.875 C-9.04410663 17.10272822 -8.83710258 14.86594556 -8 12.25 C-7.34 12.25 -6.68 12.25 -6 12.25 C-5.95101563 11.55132813 -5.90203125 10.85265625 -5.8515625 10.1328125 C-5.77679687 9.22273437 -5.70203125 8.31265625 -5.625 7.375 C-5.55539063 6.47007812 -5.48578125 5.56515625 -5.4140625 4.6328125 C-4.76815823 0.91581624 -3.7061928 0.3088494 0 0 Z " fill="#E2E2E2" transform="translate(24,898.75)"/>
<path d="M0 0 C1.65 0 3.3 0 5 0 C4.7834375 0.8353125 4.7834375 0.8353125 4.5625 1.6875 C3.97230872 4.11384195 3.476571 6.54906345 3 9 C5.78823655 10.0326802 6.8677274 10.04509293 9.75 9.0625 C10.4925 8.711875 11.235 8.36125 12 8 C12 12 12 12 11 13.75 C7.77326509 15.76670932 4.75039382 15.1844456 1 15 C1.226875 15.886875 1.45375 16.77375 1.6875 17.6875 C2 21 2 21 1 23.8125 C-1 26 -1 26 -4.375 27.0625 C-8 27 -8 27 -10.875 25.5 C-13.66257079 22.22050496 -14.1506132 20.29247606 -14 16 C-12 13 -12 13 -9 11 C-5.1875 11.1875 -5.1875 11.1875 -2 12 C-2 10.56189626 -2.07077053 9.1245809 -2.125 7.6875 C-2.01079654 4.31849796 -1.77022357 2.76597433 0 0 Z " fill="#E62425" transform="translate(497,749)"/>
<path d="M0 0 C4.70588235 0.70588235 4.70588235 0.70588235 6 2 C6.04080783 3.99958364 6.04254356 6.00045254 6 8 C5.01 8 4.02 8 3 8 C2.67 7.34 2.34 6.68 2 6 C1.01 7.485 1.01 7.485 0 9 C0.804375 9.309375 1.60875 9.61875 2.4375 9.9375 C5 11 5 11 6 12 C6.04080783 13.99958364 6.04254356 16.00045254 6 18 C4.68 18 3.36 18 2 18 C2 18.66 2 19.32 2 20 C3.32 20.66 4.64 21.32 6 22 C6 23.98 6 25.96 6 28 C5.01 27.67 4.02 27.34 3 27 C3 25.68 3 24.36 3 23 C2.34 23 1.68 23 1 23 C0.01 25.475 0.01 25.475 -1 28 C-6.875 27.125 -6.875 27.125 -8 26 C-8.07319621 23.30345146 -8.09242537 20.63308542 -8.0625 17.9375 C-8.05798828 17.17888672 -8.05347656 16.42027344 -8.04882812 15.63867188 C-8.0370068 13.75908129 -8.01907078 11.87953101 -8 10 C-7.01 9.67 -6.02 9.34 -5 9 C-5 8.34 -5 7.68 -5 7 C-5.66 7 -6.32 7 -7 7 C-7 5.02 -7 3.04 -7 1 C-6.34 1 -5.68 1 -5 1 C-5 2.32 -5 3.64 -5 5 C-4.01 5 -3.02 5 -2 5 C-1.855625 4.360625 -1.71125 3.72125 -1.5625 3.0625 C-1 1 -1 1 0 0 Z " fill="#DFDFDF" transform="translate(23,762)"/>
<path d="M0 0 C1.32 0.33 2.64 0.66 4 1 C3.4740625 1.8353125 3.4740625 1.8353125 2.9375 2.6875 C1.78154007 5.53886783 2.19032562 7.08517222 3 10 C4.32 10 5.64 10 7 10 C7.33 9.34 7.66 8.68 8 8 C9.32 8.33 10.64 8.66 12 9 C12.33 11.31 12.66 13.62 13 16 C12.01 15.01 11.02 14.02 10 13 C9.34 13.66 8.68 14.32 8 15 C1.67741935 15.33870968 1.67741935 15.33870968 -1 14 C-0.67 14.66 -0.34 15.32 0 16 C0.45665236 22.27896996 0.45665236 22.27896996 -1.1875 24.875 C-4.47375248 26.91474292 -6.92664992 27.2496163 -10.6875 26.375 C-13 25 -13 25 -14.3125 22.75 C-15.06644253 19.73422987 -15.14404138 17.09688972 -15 14 C-12.03234602 12.35130334 -9.37471415 11.43265566 -6 11 C-5.01 11.33 -4.02 11.66 -3 12 C-3.061875 10.7625 -3.12375 9.525 -3.1875 8.25 C-3.20362826 5.21788698 -3.10651023 4.17751704 -1.5 1.5 C-1.005 1.005 -0.51 0.51 0 0 Z " fill="#E62728" transform="translate(156,407)"/>
<path d="M0 0 C5.79002212 0.83415573 9.6670828 5.49169895 13.375 9.6875 C15 12 15 12 16 15 C16.66 15 17.32 15 18 15 C17.43628586 18.26954202 16.50037734 19.82575883 14 22 C13.67 21.01 13.34 20.02 13 19 C12.01 19.66 11.02 20.32 10 21 C6.12661246 21.42255137 3.88401391 21.56667558 0.5625 19.4375 C-1.97973551 15.4716126 -1.37403681 11.78706477 -0.4375 7.3125 C0.03315645 4.82474449 -0.31534655 3.39628706 -1 1 C-0.67 0.67 -0.34 0.34 0 0 Z " fill="#E52425" transform="translate(536,530)"/>
<path d="M0 0 C0.33 0 0.66 0 1 0 C1.33 4.29 1.66 8.58 2 13 C2.66 12.67 3.32 12.34 4 12 C7.59870962 11.60883591 9.34439619 11.52158641 12.3125 13.6875 C14.24496181 16.3356884 14.92190579 17.72004329 15 21 C13.67009547 24.76806282 12.91373041 26.53251002 9.3125 28.375 C8.549375 28.58125 7.78625 28.7875 7 29 C5.35 27.35 3.7 25.7 2 24 C1.67 24.99 1.34 25.98 1 27 C1.66 27 2.32 27 3 27 C3.125 34.75 3.125 34.75 2 37 C1.01 37 0.02 37 -1 37 C-0.67 24.79 -0.34 12.58 0 0 Z " fill="#E42223" transform="translate(763,469)"/>
<path d="M0 0 C4.80025799 0.85449619 9.05223415 2.04582915 13 5 C14.76876213 9.05341323 15.26654212 12.602055 15 17 C12.04044139 18.69213943 9.84300083 19.29521319 6.4375 19.3125 C5.29087891 19.33763672 5.29087891 19.33763672 4.12109375 19.36328125 C2 19 2 19 0.203125 17.9921875 C-1.74572172 14.76520105 -1.04355469 11.42031081 -0.6875 7.8125 C-0.62626953 7.06291016 -0.56503906 6.31332031 -0.50195312 5.54101562 C-0.34891389 3.69277255 -0.17633121 1.8461665 0 0 Z " fill="#DDDDDD" transform="translate(16,813)"/>
<path d="M0 0 C0.99 0.66 1.98 1.32 3 2 C4.67654729 1.72057545 6.34259285 1.37668344 8 1 C14.18604651 0.34883721 14.18604651 0.34883721 17.5 3 C19.2373907 6.47478139 19.36313111 8.37065043 18.6953125 12.12890625 C17.59845414 15.08056442 15.6121879 16.39249975 13 18 C7.65444233 15.82218021 4.51883006 12.03766012 2 7 C1.01 6.67 0.02 6.34 -1 6 C-1.8125 4.0625 -1.8125 4.0625 -2 2 C-1.34 1.34 -0.68 0.68 0 0 Z " fill="#E62526" transform="translate(392,674)"/>
<path d="M0 0 C0.33 0 0.66 0 1 0 C1 5.94 1 11.88 1 18 C0.34 18 -0.32 18 -1 18 C-1 18.66 -1 19.32 -1 20 C-3.97 20.33 -6.94 20.66 -10 21 C-10.33 20.01 -10.66 19.02 -11 18 C-11.66 18 -12.32 18 -13 18 C-13 16.35 -13 14.7 -13 13 C-14.32 13 -15.64 13 -17 13 C-17 11.68 -17 10.36 -17 9 C-13.535 8.505 -13.535 8.505 -10 8 C-10.66 7.34 -11.32 6.68 -12 6 C-11.67 5.01 -11.34 4.02 -11 3 C-9.68 3.99 -8.36 4.98 -7 6 C-5.35 5.01 -3.7 4.02 -2 3 C-2 4.32 -2 5.64 -2 7 C-1.855625 6.21625 -1.71125 5.4325 -1.5625 4.625 C-1 2 -1 2 0 0 Z " fill="#E9E9E9" transform="translate(31,876)"/>
<path d="M0 0 C0.99 0 1.98 0 3 0 C3 0.66 3 1.32 3 2 C7.04622502 2.36980013 7.04622502 2.36980013 10 0 C13.51605497 0.14961936 15.4953789 0.64145343 18.375 2.6875 C20.4909588 5.69867214 20.45185965 7.38512276 20 11 C18.79293121 14.34265205 18.07943151 14.94704566 15 17 C10.40589696 16.50851691 7.79959235 13.3143591 4.6875 10.1875 C4.12482422 9.65318359 3.56214844 9.11886719 2.98242188 8.56835938 C1.38671875 6.98046875 1.38671875 6.98046875 -1 4 C-0.64916992 1.8137207 -0.64916992 1.8137207 0 0 Z " fill="#E62526" transform="translate(552,513)"/>
<path d="M0 0 C3.5 1.1875 3.5 1.1875 5.5 3.1875 C6.17386609 10.15078294 6.17386609 10.15078294 3.875 13.6875 C0.73686002 15.66948314 -0.84873465 15.85814058 -4.5 15.1875 C-7.86344489 12.70147551 -9.30057749 11.27324477 -10.0625 7.125 C-9.38178485 3.57015419 -8.29927541 2.410454 -5.5 0.1875 C-3.5 -0.8125 -3.5 -0.8125 0 0 Z " fill="#E62526" transform="translate(599.5,653.8125)"/>
<path d="M0 0 C0.33 0 0.66 0 1 0 C1 2.31 1 4.62 1 7 C0.67 7 0.34 7 0 7 C0 4.69 0 2.38 0 0 Z M-6 7 C-5.38125 7.185625 -4.7625 7.37125 -4.125 7.5625 C-1.95839822 8.23686176 -1.95839822 8.23686176 0 7 C1.52634923 10.05269846 0.83794444 12.75845689 0.5625 16.125 C0.46066406 17.40632812 0.35882812 18.68765625 0.25390625 20.0078125 C0.17011719 20.99523437 0.08632813 21.98265625 0 23 C-1.65 23 -3.3 23 -5 23 C-5 24.65 -5 26.3 -5 28 C-9.51478398 27.46884894 -12.34666857 25.63379708 -16 23 C-15.67 21.35 -15.34 19.7 -15 18 C-14.34 18 -13.68 18 -13 18 C-12.67 17.34 -12.34 16.68 -12 16 C-11.01 16 -10.02 16 -9 16 C-8.34 14.35 -7.68 12.7 -7 11 C-6.01 11.33 -5.02 11.66 -4 12 C-4 13.32 -4 14.64 -4 16 C-3.34 16.33 -2.68 16.66 -2 17 C-2.59861742 14.64828869 -3.26924352 12.3140622 -4 10 C-4.66 9.67 -5.32 9.34 -6 9 C-6 8.34 -6 7.68 -6 7 Z " fill="#E8E8E8" transform="translate(31,773)"/>
<path d="M0 0 C4.2223846 0.58239788 5.87317522 1.24784344 8.625 4.5 C9.26234462 8.46569988 9.24499672 10.53280512 7.0625 13.9375 C3.68282196 16.10396028 1.56516013 16.06288002 -2.375 15.5 C-4.8125 13.9375 -4.8125 13.9375 -6.375 11.5 C-6.83174603 7.84603178 -6.78782332 5.44706527 -5.3125 2.0625 C-3.375 0.5 -3.375 0.5 0 0 Z " fill="#E62526" transform="translate(391.375,685.5)"/>
<path d="M0 0 C2.5 1.5625 2.5 1.5625 4 4 C4.56783945 7.97487617 4.62340519 10.06489221 2.375 13.4375 C-0.75683492 15.49791771 -2.31544773 15.6767545 -6 15 C-8.875 12.9375 -8.875 12.9375 -11 10 C-11.48259887 6.50115821 -11.63513623 4.23057644 -10 1.0625 C-6.75527728 -0.66125894 -3.53154718 -0.62530413 0 0 Z " fill="#E62425" transform="translate(557,525)"/>
<path d="M0 0 C3.5 1.25 3.5 1.25 5.5 4.25 C5.92660463 8.16054241 6.08646281 10.37030578 3.875 13.6875 C0.74316508 15.74791771 -0.81544773 15.9267545 -4.5 15.25 C-7.86344489 12.76397551 -9.30057749 11.33574477 -10.0625 7.1875 C-9.38178485 3.63265419 -8.29927541 2.472954 -5.5 0.25 C-3.5 -0.75 -3.5 -0.75 0 0 Z " fill="#E62526" transform="translate(428.5,482.75)"/>
<path d="M0 0 C0.66 0.33 1.32 0.66 2 1 C2 3.31 2 5.62 2 8 C3.093125 7.95875 4.18625 7.9175 5.3125 7.875 C9 8 9 8 12 10 C10.375 11.5625 10.375 11.5625 8 13 C4.75 12.6875 4.75 12.6875 2 12 C2 12.66 2 13.32 2 14 C2.99 14.33 3.98 14.66 5 15 C4.34 16.32 3.68 17.64 3 19 C2.401875 18.67 1.80375 18.34 1.1875 18 C-1.05386471 16.79212012 -1.05386471 16.79212012 -4 17 C-7.35727438 13.30699818 -10.12335691 9.07524438 -13 5 C-9.25 2 -9.25 2 -7 2 C-6.67 3.32 -6.34 4.64 -6 6 C-5.34 6 -4.68 6 -4 6 C-4 6.66 -4 7.32 -4 8 C-1.62596029 5.62596029 -1.57888764 4.22523111 -1 1 C-0.67 0.67 -0.34 0.34 0 0 Z " fill="#E52526" transform="translate(788,287)"/>
<path d="M0 0 C-0.88188976 6.5511811 -0.88188976 6.5511811 -1.625 9.375 C-1.74875 9.91125 -1.8725 10.4475 -2 11 C-1.67 11.33 -1.34 11.66 -1 12 C-0.95919217 13.99958364 -0.95745644 16.00045254 -1 18 C-1.66 18.33 -2.32 18.66 -3 19 C-3.4640625 17.5459375 -3.4640625 17.5459375 -3.9375 16.0625 C-4.69523342 13.15934208 -4.69523342 13.15934208 -6 12 C-7.66617115 11.95936168 -9.33388095 11.957279 -11 12 C-11.99 14.475 -11.99 14.475 -13 17 C-14.65 17 -16.3 17 -18 17 C-18.33 17.66 -18.66 18.32 -19 19 C-18.67 17.68 -18.34 16.36 -18 15 C-16.68 14.67 -15.36 14.34 -14 14 C-13.23681405 9.17867673 -13.23681405 9.17867673 -13.0625 4.3125 C-12.98971276 1.61937205 -12.56571188 0.19199663 -11 -2 C-7.07040122 -4.18311043 -3.6835409 -1.77093312 0 0 Z " fill="#DCDCDC" transform="translate(32,930)"/>
<path d="M0 0 C0 2.64 0 5.28 0 8 C0.66 8 1.32 8 2 8 C3.94872273 11.89744546 3.07054809 15.69261191 2.125 19.8125 C1 23 1 23 -1 24 C-2.03159626 20.90521121 -1.97482862 19.47368607 -1.5625 16.3125 C-1.46066406 15.50425781 -1.35882813 14.69601562 -1.25390625 13.86328125 C-1.17011719 13.24839844 -1.08632813 12.63351562 -1 12 C-4.58327753 10.99782936 -4.58327753 10.99782936 -8 12 C-9.32 12 -10.64 12 -12 12 C-12.33 13.65 -12.66 15.3 -13 17 C-13.33 17 -13.66 17 -14 17 C-14.49230769 10.6 -14.49230769 10.6 -12 7.5625 C-11.34 7.046875 -10.68 6.53125 -10 6 C-10.99 5.34 -11.98 4.68 -13 4 C-13 2.68 -13 1.36 -13 0 C-4.57142857 -1.28571429 -4.57142857 -1.28571429 0 0 Z " fill="#DDDDDD" transform="translate(29,835)"/>
<path d="M0 0 C0.86625 0.37125 0.86625 0.37125 1.75 0.75 C1.75 1.74 1.75 2.73 1.75 3.75 C0.76 4.41 -0.23 5.07 -1.25 5.75 C-1.58 6.74 -1.91 7.73 -2.25 8.75 C-1.198125 8.399375 -0.14625 8.04875 0.9375 7.6875 C4.56517337 6.79544917 6.28535342 6.56212117 9.75 7.75 C11.75 9.75 11.75 9.75 12.1875 12.5625 C11.75 15.75 11.75 15.75 9.5625 18.6875 C6.75 20.75 6.75 20.75 3.9375 20.5625 C3.215625 20.294375 2.49375 20.02625 1.75 19.75 C1.75 19.09 1.75 18.43 1.75 17.75 C2.36875 17.5025 2.9875 17.255 3.625 17 C6.10068687 15.54371361 6.70125002 14.37187494 7.75 11.75 C6.925 12.100625 6.1 12.45125 5.25 12.8125 C0.91613108 13.97335775 -1.85909969 13.50705178 -6.25 12.75 C-6.87068966 4.68103448 -6.87068966 4.68103448 -4.5 1.125 C-2.25 -0.25 -2.25 -0.25 0 0 Z " fill="#E62425" transform="translate(425.25,644.25)"/>
<path d="M0 0 C3.375 0.25 3.375 0.25 7 1 C8.4375 3.0625 8.4375 3.0625 9 5 C7.35 6.98 5.7 8.96 4 11 C5.1446875 10.2884375 5.1446875 10.2884375 6.3125 9.5625 C9 8 9 8 12 7 C11.65447612 9.55687669 11.24912987 11.57501375 9.9375 13.8125 C6.75444301 15.7634059 3.67569327 15.1807718 0 15 C-0.33 15.99 -0.66 16.98 -1 18 C-2.96732407 15.79822798 -3.95933134 14.55167921 -4.1796875 11.5625 C-4.07914063 10.716875 -3.97859375 9.87125 -3.875 9 C-3.78992188 8.154375 -3.70484375 7.30875 -3.6171875 6.4375 C-2.92293297 3.695634 -1.82577275 2.13171305 0 0 Z " fill="#E52526" transform="translate(733,341)"/>
<path d="M0 0 C1.375 2.0625 1.375 2.0625 2 4 C0.35 5.98 -1.3 7.96 -3 10 C-2.21625 9.525625 -1.4325 9.05125 -0.625 8.5625 C0.88948678 7.66101977 2.4235897 6.78820515 4 6 C4.66 6.33 5.32 6.66 6 7 C4.7156759 9.86503068 3.58401213 12.15427705 1 14 C-1.875 14.5 -1.875 14.5 -5 14 C-7.875 11.9375 -7.875 11.9375 -10 9 C-10.5625 5.375 -10.5625 5.375 -10 2 C-7.0350563 -1.64916147 -4.2862332 -1.39768474 0 0 Z " fill="#E52425" transform="translate(784,471)"/>
<path d="M0 0 C2.61697515 3.92546273 2.10821294 7.05194181 1.8125 11.5625 C1.78091797 12.34302734 1.74933594 13.12355469 1.71679688 13.92773438 C1.58203125 16.19140625 1.58203125 16.19140625 1 20 C0.01 20.66 -0.98 21.32 -2 22 C-2.66 21.34 -3.32 20.68 -4 20 C-3.01 20 -2.02 20 -1 20 C-1.66 17.69 -2.32 15.38 -3 13 C-4.65 12.67 -6.3 12.34 -8 12 C-7.01 10.35 -6.02 8.7 -5 7 C-4.67 7.99 -4.34 8.98 -4 10 C-3.01 10 -2.02 10 -1 10 C-1.66 7.69 -2.32 5.38 -3 3 C-4.65 3.33 -6.3 3.66 -8 4 C-8.33 4.99 -8.66 5.98 -9 7 C-9.99 7 -10.98 7 -12 7 C-12 5.68 -12 4.36 -12 3 C-12.66 3 -13.32 3 -14 3 C-14 4.65 -14 6.3 -14 8 C-14.33 8 -14.66 8 -15 8 C-15 5.36 -15 2.72 -15 0 C-9.72745789 -0.83250665 -5.27597734 -1.26623456 0 0 Z " fill="#E3E3E3" transform="translate(30,760)"/>
<path d="M0 0 C2.31 0.66 4.62 1.32 7 2 C7.12375 3.175625 7.12375 3.175625 7.25 4.375 C7.72459068 7.10873509 7.72459068 7.10873509 9.875 8.25 C11.57726879 8.85080075 13.28745438 9.42915146 15 10 C14.67 11.32 14.34 12.64 14 14 C11.3125 14.8125 11.3125 14.8125 8 15 C5.4375 12.6875 5.4375 12.6875 3 10 C0.33466965 8.680982 0.33466965 8.680982 -2 8 C-2.125 5.125 -2.125 5.125 -2 2 C-1.34 1.34 -0.68 0.68 0 0 Z " fill="#E62425" transform="translate(431,639)"/>
<path d="M0 0 C2.733765 0.61483325 5.14174118 1.42927383 7.671875 2.62890625 C8.33574219 2.94150391 8.99960937 3.25410156 9.68359375 3.57617188 C10.36550781 3.90166016 11.04742188 4.22714844 11.75 4.5625 C12.44738281 4.89185547 13.14476562 5.22121094 13.86328125 5.56054688 C15.5770467 6.37047712 17.28873194 7.18480638 19 8 C18.34 9.32 17.68 10.64 17 12 C14.69 11.67 12.38 11.34 10 11 C9.34 12.32 8.68 13.64 8 15 C7.59007812 14.30132813 7.18015625 13.60265625 6.7578125 12.8828125 C6.21898437 11.97273437 5.68015625 11.06265625 5.125 10.125 C4.59132813 9.22007812 4.05765625 8.31515625 3.5078125 7.3828125 C2.08024648 4.93396718 2.08024648 4.93396718 0 3 C0 2.01 0 1.02 0 0 Z " fill="#E52425" transform="translate(523,545)"/>
<path d="M0 0 C6.6 0 13.2 0 20 0 C20.33 1.65 20.66 3.3 21 5 C13.74 5 6.48 5 -1 5 C-0.67 3.35 -0.34 1.7 0 0 Z " fill="#A9A9A9" transform="translate(14,868)"/>
<path d="M0 0 C2.33944736 0.28730055 4.6739143 0.61936779 7 1 C7.2475 1.94875 7.495 2.8975 7.75 3.875 C8.6857077 7.08693191 8.6857077 7.08693191 11.125 8.375 C11.74375 8.58125 12.3625 8.7875 13 9 C13.33 8.01 13.66 7.02 14 6 C14.33 8.64 14.66 11.28 15 14 C13.25 14.67578125 13.25 14.67578125 11 15 C9 13.85546875 9 13.85546875 7 12.1875 C4.42304149 10.0685556 2.040114 8.39112359 -1 7 C-1.04254356 5.00045254 -1.04080783 2.99958364 -1 1 C-0.67 0.67 -0.34 0.34 0 0 Z " fill="#E62526" transform="translate(635,607)"/>
<path d="M0 0 C2.31243792 -0.02685412 4.6249627 -0.04632841 6.9375 -0.0625 C8.22527344 -0.07410156 9.51304688 -0.08570313 10.83984375 -0.09765625 C14 0 14 0 15 1 C15.1875 3.9375 15.1875 3.9375 15 7 C13 9 13 9 10 9.3125 C9.01 9.209375 8.02 9.10625 7 9 C5 6 5 6 5 3 C3.35 3 1.7 3 0 3 C0 2.01 0 1.02 0 0 Z " fill="#656565" transform="translate(14,963)"/>
<path d="M0 0 C2.625 0.25 2.625 0.25 4.4375 1.375 C5.625 3.25 5.625 3.25 5.625 9.25 C0.675 9.25 -4.275 9.25 -9.375 9.25 C-9.375 8.26 -9.375 7.27 -9.375 6.25 C-7.725 6.25 -6.075 6.25 -4.375 6.25 C-4.230625 5.445625 -4.08625 4.64125 -3.9375 3.8125 C-3.17394875 0.33409987 -3.17394875 0.33409987 0 0 Z " fill="#656565" transform="translate(23.375,940.75)"/>
<path d="M0 0 C4.875 0.875 4.875 0.875 6 2 C6.1875 4.4375 6.1875 4.4375 6 7 C4 9 4 9 1.90625 9.265625 C1.1121875 9.26046875 0.318125 9.2553125 -0.5 9.25 C-1.2940625 9.25515625 -2.088125 9.2603125 -2.90625 9.265625 C-5 9 -5 9 -7 7 C-7.125 4.375 -7.125 4.375 -7 2 C-2.25 0.875 -2.25 0.875 0 2 C0 1.34 0 0.68 0 0 Z " fill="#7B7B7B" transform="translate(23,823)"/>
<path d="M0 0 C0.33 0 0.66 0 1 0 C1 2.31 1 4.62 1 7 C2.98 6.67 4.96 6.34 7 6 C7 5.34 7 4.68 7 4 C7.99 4 8.98 4 10 4 C10 6.8125 10 6.8125 9 10 C6.36 10.99 3.72 11.98 1 13 C0.67 22.9 0.34 32.8 0 43 C-0.33 43 -0.66 43 -1 43 C-1.02487921 38.16195034 -1.04294428 33.32393865 -1.05493164 28.48583984 C-1.05993363 26.84292959 -1.06673733 25.20002373 -1.07543945 23.55712891 C-1.0876874 21.18390819 -1.09326979 18.81074677 -1.09765625 16.4375 C-1.10281754 15.71320801 -1.10797882 14.98891602 -1.11329651 14.24267578 C-1.11381759 9.4125661 -0.68027235 4.78309137 0 0 Z " fill="#E73A39" transform="translate(284,453)"/>
<path d="M0 0 C1.65 1.65 3.3 3.3 5 5 C4.690625 5.53625 4.38125 6.0725 4.0625 6.625 C2.82172561 9.3984957 2.4090325 12.00042837 2 15 C0.68 15.33 -0.64 15.66 -2 16 C-2.66 15.01 -3.32 14.02 -4 13 C-4.33 13.33 -4.66 13.66 -5 14 C-6.66617115 14.04063832 -8.33388095 14.042721 -10 14 C-8.88625 12.948125 -8.88625 12.948125 -7.75 11.875 C-4.28682569 8.25440867 -1.5921543 4.77646289 0 0 Z " fill="#E42627" transform="translate(453,616)"/>
<path d="M0 0 C0 0.99 0 1.98 0 3 C-0.99 3.33 -1.98 3.66 -3 4 C-3.33 5.65 -3.66 7.3 -4 9 C-2.68 9 -1.36 9 0 9 C0 9.99 0 10.98 0 12 C-0.67546875 11.79503906 -1.3509375 11.59007812 -2.046875 11.37890625 C-2.93890625 11.10949219 -3.8309375 10.84007812 -4.75 10.5625 C-5.63171875 10.29566406 -6.5134375 10.02882813 -7.421875 9.75390625 C-9.60565835 9.11531506 -11.78835498 8.53224167 -14 8 C-14 6.68 -14 5.36 -14 4 C-12.0429132 3.32968281 -10.08428887 2.66385317 -8.125 2 C-7.03445312 1.62875 -5.94390625 1.2575 -4.8203125 0.875 C-2 0 -2 0 0 0 Z " fill="#545454" transform="translate(29,973)"/>
<path d="M0 0 C4.875 0.875 4.875 0.875 6 2 C6.1875 4.4375 6.1875 4.4375 6 7 C4 9 4 9 1.1875 9.4375 C-3.03036531 8.85857731 -4.40130534 7.28658443 -7 4 C-7 3.01 -7 2.02 -7 1 C-6.01 1 -5.02 1 -4 1 C-3.67 1.99 -3.34 2.98 -3 4 C-2.01 2.68 -1.02 1.36 0 0 Z " fill="#646464" transform="translate(23,803)"/>
<path d="M0 0 C2.125 0.375 2.125 0.375 4 1 C4 1.66 4 2.32 4 3 C3.34 3 2.68 3 2 3 C2 5.64 2 8.28 2 11 C3.65 11 5.3 11 7 11 C7.33 10.34 7.66 9.68 8 9 C7.67 10.98 7.34 12.96 7 15 C4.69 14.67 2.38 14.34 0 14 C-0.33 13.01 -0.66 12.02 -1 11 C-1.66 11 -2.32 11 -3 11 C-2.88590407 9.54077307 -2.75834456 8.08259402 -2.625 6.625 C-2.55539062 5.81289063 -2.48578125 5.00078125 -2.4140625 4.1640625 C-2 2 -2 2 0 0 Z " fill="#E62828" transform="translate(615,459)"/>
<path d="M0 0 C3 0.25 3 0.25 5 2.25 C5.25 4.75 5.25 4.75 5 7.25 C3 9.25 3 9.25 0 9.5 C-3 9.25 -3 9.25 -5 7.25 C-5.25 4.75 -5.25 4.75 -5 2.25 C-3 0.25 -3 0.25 0 0 Z " fill="#585858" transform="translate(24,951.75)"/>
<path d="M0 0 C3 0.25 3 0.25 5 2.25 C5.25 4.75 5.25 4.75 5 7.25 C3 9.25 3 9.25 0 9.5 C-3 9.25 -3 9.25 -5 7.25 C-5.25 4.75 -5.25 4.75 -5 2.25 C-3 0.25 -3 0.25 0 0 Z " fill="#555555" transform="translate(24,898.75)"/>
<path d="M0 0 C0.66 0.99 1.32 1.98 2 3 C5.05429073 4.21284876 5.05429073 4.21284876 8 5 C7.34 6.32 6.68 7.64 6 9 C3.69 9 1.38 9 -1 9 C-0.67 10.65 -0.34 12.3 0 14 C-0.99 14.33 -1.98 14.66 -3 15 C-3.99 14.01 -4.98 13.02 -6 12 C-4.02 8.04 -2.04 4.08 0 0 Z " fill="#E42526" transform="translate(802,623)"/>
<path d="M0 0 C1.65 0.99 3.3 1.98 5 3 C6.65 2.01 8.3 1.02 10 0 C9.125 3.875 9.125 3.875 8 5 C8.66 5.33 9.32 5.66 10 6 C10 6.99 10 7.98 10 9 C5.05 9 0.1 9 -5 9 C-5 8.01 -5 7.02 -5 6 C-1.535 5.505 -1.535 5.505 2 5 C1.34 4.34 0.68 3.68 0 3 C0 2.01 0 1.02 0 0 Z " fill="#5F5F5F" transform="translate(19,879)"/>
<path d="M0 0 C0 0.99 0 1.98 0 3 C-0.99 3 -1.98 3 -3 3 C-3 4.65 -3 6.3 -3 8 C-6.93370357 7.43804235 -9.83175607 6.44407389 -13 4 C-13 2.68 -13 1.36 -13 0 C-4.57142857 -1.28571429 -4.57142857 -1.28571429 0 0 Z " fill="#5C5C5C" transform="translate(29,835)"/>
<path d="M0 0 C0 0.99 0 1.98 0 3 C-0.99 3 -1.98 3 -3 3 C-3 4.65 -3 6.3 -3 8 C-6.93370357 7.43804235 -9.83175607 6.44407389 -13 4 C-13 2.68 -13 1.36 -13 0 C-4.57142857 -1.28571429 -4.57142857 -1.28571429 0 0 Z " fill="#696969" transform="translate(29,793)"/>
<path d="M0 0 C1.8272911 2.74093665 2.93698178 5.13825324 4.125 8.1875 C4.47820312 9.08855469 4.83140625 9.98960937 5.1953125 10.91796875 C5.46085937 11.60503906 5.72640625 12.29210937 6 13 C4.35 13.33 2.7 13.66 1 14 C0.67 13.34 0.34 12.68 0 12 C-0.99 12.33 -1.98 12.66 -3 13 C-3.08121924 11.39667209 -3.13929134 9.79215974 -3.1875 8.1875 C-3.22230469 7.29417969 -3.25710938 6.40085937 -3.29296875 5.48046875 C-2.95081002 2.58352485 -2.24606427 1.77444972 0 0 Z " fill="#E52C2C" transform="translate(467,608)"/>
<path d="M0 0 C5.61 0 11.22 0 17 0 C16.34 0.66 15.68 1.32 15 2 C13.68 2 12.36 2 11 2 C10.87625 2.804375 10.7525 3.60875 10.625 4.4375 C10.41875 5.283125 10.2125 6.12875 10 7 C9.01 7.495 9.01 7.495 8 8 C6.66372225 6.85760183 5.33104612 5.71098945 4 4.5625 C3.2575 3.92441406 2.515 3.28632812 1.75 2.62890625 C1.1725 2.09136719 0.595 1.55382812 0 1 C0 0.67 0 0.34 0 0 Z " fill="#E52424" transform="translate(503,749)"/>
<path d="M0 0 C0.66 0.66 1.32 1.32 2 2 C4.21072977 2.24253813 4.21072977 2.24253813 6.625 2.125 C7.44226563 2.10695313 8.25953125 2.08890625 9.1015625 2.0703125 C9.72804688 2.04710937 10.35453125 2.02390625 11 2 C12.90608098 5.21182149 13.22266247 7.53882603 13.125 11.25 C13.10695313 12.14203125 13.08890625 13.0340625 13.0703125 13.953125 C13.03550781 14.96632813 13.03550781 14.96632813 13 16 C9.71669856 13.07651242 9.04133067 10.24542505 8 6 C3.85906302 5.79029441 3.85906302 5.79029441 0 7 C0 4.69 0 2.38 0 0 Z " fill="#E8E8E8" transform="translate(19,894)"/>
<path d="M0 0 C1.2065625 0.0309375 1.2065625 0.0309375 2.4375 0.0625 C2.7675 1.7125 3.0975 3.3625 3.4375 5.0625 C3.7675 3.7425 4.0975 2.4225 4.4375 1.0625 C5.0975 1.0625 5.7575 1.0625 6.4375 1.0625 C6.5625 3.4375 6.5625 3.4375 6.4375 6.0625 C4.4375 8.0625 4.4375 8.0625 1.4375 8.3125 C-1.5625 8.0625 -1.5625 8.0625 -3.5625 6.0625 C-3.75 3.5 -3.75 3.5 -3.5625 1.0625 C-2.5625 0.0625 -2.5625 0.0625 0 0 Z " fill="#515151" transform="translate(22.5625,930.9375)"/>
<path d="M0 0 C0 0.66 0 1.32 0 2 C1.32 1.67 2.64 1.34 4 1 C4 1.66 4 2.32 4 3 C4.99 3 5.98 3 7 3 C7 3.66 7 4.32 7 5 C6.01 5.495 6.01 5.495 5 6 C5.66 6.66 6.32 7.32 7 8 C5.35 8.33 3.7 8.66 2 9 C2 8.34 2 7.68 2 7 C0.68 7.33 -0.64 7.66 -2 8 C-2 7.34 -2 6.68 -2 6 C-2.66 5.67 -3.32 5.34 -4 5 C-3.34 5 -2.68 5 -2 5 C-2 4.34 -2 3.68 -2 3 C-2.99 3 -3.98 3 -5 3 C-5 2.34 -5 1.68 -5 1 C-2 0 -2 0 0 0 Z " fill="#757575" transform="translate(21,854)"/>
<path d="M0 0 C0.99 0.33 1.98 0.66 3 1 C3 2.98 3 4.96 3 7 C2.01 7.495 2.01 7.495 1 8 C1 7.01 1 6.02 1 5 C-3.29 5 -7.58 5 -12 5 C-12.33 5.99 -12.66 6.98 -13 8 C-13 6.35 -13 4.7 -13 3 C-12.34 3 -11.68 3 -11 3 C-10.67 2.34 -10.34 1.68 -10 1 C-9.36191406 1.01160156 -8.72382813 1.02320313 -8.06640625 1.03515625 C-7.24011719 1.04417969 -6.41382813 1.05320312 -5.5625 1.0625 C-4.32693359 1.07990234 -4.32693359 1.07990234 -3.06640625 1.09765625 C-1.00836062 1.23267348 -1.00836062 1.23267348 0 0 Z " fill="#E2E2E2" transform="translate(28,830)"/>
<path d="M0 0 C0.33 0 0.66 0 1 0 C1 8.91 1 17.82 1 27 C1.66 27 2.32 27 3 27 C3.125 34.75 3.125 34.75 2 37 C1.01 37 0.02 37 -1 37 C-0.67 24.79 -0.34 12.58 0 0 Z " fill="#E83E40" transform="translate(763,469)"/>
<path d="M0 0 C4.70588235 0.70588235 4.70588235 0.70588235 6 2 C6.04080783 3.99958364 6.04254356 6.00045254 6 8 C5.01 7.67 4.02 7.34 3 7 C3 5.68 3 4.36 3 3 C2.34 2.67 1.68 2.34 1 2 C0.773125 2.804375 0.54625 3.60875 0.3125 4.4375 C-1 7 -1 7 -3.5 7.9375 C-4.325 7.958125 -5.15 7.97875 -6 8 C-8 6 -8 6 -8.125 3.375 C-8.08375 2.59125 -8.0425 1.8075 -8 1 C-7.34 1 -6.68 1 -6 1 C-5.814375 1.9590625 -5.814375 1.9590625 -5.625 2.9375 C-5.315625 3.9584375 -5.315625 3.9584375 -5 5 C-4.34 5.33 -3.68 5.66 -3 6 C-2.690625 5.195625 -2.38125 4.39125 -2.0625 3.5625 C-1 1 -1 1 0 0 Z " fill="#515151" transform="translate(23,916)"/>
<path d="M0 0 C4.70588235 0.70588235 4.70588235 0.70588235 6 2 C6.04080783 3.99958364 6.04254356 6.00045254 6 8 C5.01 7.67 4.02 7.34 3 7 C3 5.68 3 4.36 3 3 C2.34 3 1.68 3 1 3 C0.34 4.65 -0.32 6.3 -1 8 C-3.97 7.505 -3.97 7.505 -7 7 C-7 5.02 -7 3.04 -7 1 C-6.34 1 -5.68 1 -5 1 C-5 2.32 -5 3.64 -5 5 C-4.01 5 -3.02 5 -2 5 C-1.855625 4.360625 -1.71125 3.72125 -1.5625 3.0625 C-1 1 -1 1 0 0 Z " fill="#555555" transform="translate(23,782)"/>
<path d="M0 0 C0 0.66 0 1.32 0 2 C-1.01320313 2.23783203 -1.01320313 2.23783203 -2.046875 2.48046875 C-6.20533393 3.56815815 -9.29512132 4.38108214 -12.5625 7.25 C-14.27271393 10.52171361 -14.7128191 13.33844351 -15 17 C-15.66 17 -16.32 17 -17 17 C-17.45763495 11.27956317 -16.71653644 8.40116157 -13 4 C-8.59883843 0.28346356 -5.72043683 -0.45763495 0 0 Z " fill="#E62F30" transform="translate(780,258)"/>
<path d="M0 0 C2.64 0 5.28 0 8 0 C8.66 1.32 9.32 2.64 10 4 C9.01 4.33 8.02 4.66 7 5 C7.33 6.32 7.66 7.64 8 9 C5 9 5 9 3.3125 7.5 C2.879375 7.005 2.44625 6.51 2 6 C2.66 5.34 3.32 4.68 4 4 C2.68 3.67 1.36 3.34 0 3 C0 2.01 0 1.02 0 0 Z " fill="#E52627" transform="translate(454,793)"/>
<path d="M0 0 C0.33 0 0.66 0 1 0 C1 1.98 1 3.96 1 6 C3.97 6.495 3.97 6.495 7 7 C7.33 7.99 7.66 8.98 8 10 C6.75 11.5 6.75 11.5 5 13 C3.68 13 2.36 13 1 13 C0.34 13.66 -0.32 14.32 -1 15 C-0.67 10.05 -0.34 5.1 0 0 Z " fill="#E52B2C" transform="translate(140,428)"/>
<path d="M0 0 C1 1 1 1 1.0625 4.0625 C1.041875 5.031875 1.02125 6.00125 1 7 C0.01 6.67 -0.98 6.34 -2 6 C-1.67 4.68 -1.34 3.36 -1 2 C-2.32 2 -3.64 2 -5 2 C-5 2.99 -5 3.98 -5 5 C-5.66 5 -6.32 5 -7 5 C-7 4.01 -7 3.02 -7 2 C-7.99 2 -8.98 2 -10 2 C-9.67 3.65 -9.34 5.3 -9 7 C-9.99 6.67 -10.98 6.34 -12 6 C-12 4.35 -12 2.7 -12 1 C-10.824375 0.7834375 -10.824375 0.7834375 -9.625 0.5625 C-3.18677043 -0.81712062 -3.18677043 -0.81712062 0 0 Z " fill="#5B5B5B" transform="translate(28,773)"/>
<path d="M0 0 C4.70588235 0.70588235 4.70588235 0.70588235 6 2 C6.04080783 3.99958364 6.04254356 6.00045254 6 8 C5.01 7.67 4.02 7.34 3 7 C3 5.68 3 4.36 3 3 C2.34 3 1.68 3 1 3 C0.34 4.65 -0.32 6.3 -1 8 C-3.97 7.505 -3.97 7.505 -7 7 C-7 5.02 -7 3.04 -7 1 C-6.34 1 -5.68 1 -5 1 C-5 2.32 -5 3.64 -5 5 C-4.01 5 -3.02 5 -2 5 C-1.855625 4.360625 -1.71125 3.72125 -1.5625 3.0625 C-1 1 -1 1 0 0 Z " fill="#535353" transform="translate(23,762)"/>
<path d="M0 0 C1 1 1 1 1.0625 4.0625 C1.041875 5.031875 1.02125 6.00125 1 7 C0.01 6.67 -0.98 6.34 -2 6 C-2 4.68 -2 3.36 -2 2 C-2.66 2 -3.32 2 -4 2 C-4.33 2.99 -4.66 3.98 -5 5 C-5.66 5 -6.32 5 -7 5 C-7 4.01 -7 3.02 -7 2 C-7.99 2 -8.98 2 -10 2 C-9.67 3.65 -9.34 5.3 -9 7 C-9.99 6.67 -10.98 6.34 -12 6 C-12 4.35 -12 2.7 -12 1 C-10.824375 0.7834375 -10.824375 0.7834375 -9.625 0.5625 C-3.18677043 -0.81712062 -3.18677043 -0.81712062 0 0 Z " fill="#525252" transform="translate(28,846)"/>
<path d="M0 0 C0.66 0 1.32 0 2 0 C2 0.66 2 1.32 2 2 C2.61875 2.20625 3.2375 2.4125 3.875 2.625 C6 4 6 4 6.9375 6.875 C8.2071299 10.60920559 9.79826552 11.80933957 13 14 C10.69 14 8.38 14 6 14 C3.69 9.71 1.38 5.42 -1 1 C-0.67 0.67 -0.34 0.34 0 0 Z " fill="#F5EFEE" transform="translate(690,377)"/>
<path d="M0 0 C0.66 0 1.32 0 2 0 C2.45452339 5.68154235 1.66636232 8.60036521 -2 13 C-2.99 13.33 -3.98 13.66 -5 14 C-5.38133299 12.0085944 -5.71325582 10.00720923 -6 8 C-5 7 -5 7 -2.4375 6.9375 C-1.2309375 6.9684375 -1.2309375 6.9684375 0 7 C0 4.69 0 2.38 0 0 Z " fill="#E42325" transform="translate(439,603)"/>
<path d="M0 0 C2.10855277 4.07653536 3.16775386 7.39421607 3.25 12 C3.27578125 12.86625 3.3015625 13.7325 3.328125 14.625 C2.94072585 17.42903194 2.17141522 18.26286782 0 20 C0.01160156 19.15695312 0.02320313 18.31390625 0.03515625 17.4453125 C0.04417969 16.34960938 0.05320312 15.25390625 0.0625 14.125 C0.07410156 13.03445313 0.08570313 11.94390625 0.09765625 10.8203125 C0.19744303 8.04822454 0.19744303 8.04822454 -1 6 C-1.66 6 -2.32 6 -3 6 C-3 4.35 -3 2.7 -3 1 C-2.01 0.67 -1.02 0.34 0 0 Z " fill="#E62526" transform="translate(316,527)"/>
<path d="M0 0 C2.00720923 0.28674418 4.0085944 0.61866701 6 1 C6.33 1.99 6.66 2.98 7 4 C5.68 5.32 4.36 6.64 3 8 C0.36 6.35 -2.28 4.7 -5 3 C-3.68 2.34 -2.36 1.68 -1 1 C-0.67 0.67 -0.34 0.34 0 0 Z " fill="#F6F1F1" transform="translate(568,353)"/>
<path d="M0 0 C0.99 0.33 1.98 0.66 3 1 C3 2.32 3 3.64 3 5 C2.01 5.33 1.02 5.66 0 6 C0.66 6.66 1.32 7.32 2 8 C-1.21451269 9.60725635 -4.43612536 9.05748185 -8 9 C-8.33 9.99 -8.66 10.98 -9 12 C-8.67 10.35 -8.34 8.7 -8 7 C-7.34 7 -6.68 7 -6 7 C-5.67 6.34 -5.34 5.68 -5 5 C-4.01 5 -3.02 5 -2 5 C-1.34 3.35 -0.68 1.7 0 0 Z " fill="#DBDBDB" transform="translate(24,784)"/>
<path d="M0 0 C0.66 0 1.32 0 2 0 C2 0.66 2 1.32 2 2 C3.98 2 5.96 2 8 2 C8 1.34 8 0.68 8 0 C8.66 0 9.32 0 10 0 C9.67 1.65 9.34 3.3 9 5 C4.545 5.495 4.545 5.495 0 6 C0 5.34 0 4.68 0 4 C-0.99 4 -1.98 4 -3 4 C-3 3.34 -3 2.68 -3 2 C-2.01 2 -1.02 2 0 2 C0 1.34 0 0.68 0 0 Z " fill="#686868" transform="translate(19,909)"/>
<path d="M0 0 C4.85963179 0.60745397 8.7405518 2.72758967 13 5 C13 5.66 13 6.32 13 7 C8.87248551 6.39301257 5.6678852 4.96189209 2 3 C2 4.98 2 6.96 2 9 C1.34 9 0.68 9 0 9 C0 6.03 0 3.06 0 0 Z " fill="#515151" transform="translate(16,813)"/>
<path d="M0 0 C0.33 1.32 0.66 2.64 1 4 C0.34 4 -0.32 4 -1 4 C-1.33569297 5.62451419 -1.6684796 7.24962917 -2 8.875 C-2.185625 9.77992188 -2.37125 10.68484375 -2.5625 11.6171875 C-3.06019595 13.92407903 -3.06019595 13.92407903 -3 16 C-3.66 16 -4.32 16 -5 16 C-5.33 17.65 -5.66 19.3 -6 21 C-7.34084273 16.64830096 -6.35194043 13.1169548 -5.25 8.8125 C-4.99476563 7.70745117 -4.99476563 7.70745117 -4.734375 6.58007812 C-4.203125 4.45703125 -4.203125 4.45703125 -3 1 C-2.01 0.67 -1.02 0.34 0 0 Z " fill="#E41D1E" transform="translate(150,394)"/>
<path d="M0 0 C0.33 0 0.66 0 1 0 C1.33 2.64 1.66 5.28 2 8 C0.3125 8.75 0.3125 8.75 -2 9 C-4.75 7.1875 -4.75 7.1875 -7 5 C-7 4.34 -7 3.68 -7 3 C-6.34 3 -5.68 3 -5 3 C-4.67 2.34 -4.34 1.68 -4 1 C-2.68 1.66 -1.36 2.32 0 3 C0 2.01 0 1.02 0 0 Z " fill="#E72E2F" transform="translate(648,613)"/>
<path d="M0 0 C5.75 1.875 5.75 1.875 8 3 C8 3.66 8 4.32 8 5 C7.071875 5.28875 6.14375 5.5775 5.1875 5.875 C1.79341092 7.07291379 -0.39407419 7.91571171 -2.1875 11.125 C-2.455625 11.74375 -2.72375 12.3625 -3 13 C-2.67 10.69 -2.34 8.38 -2 6 C-1.34 6 -0.68 6 0 6 C0 4.02 0 2.04 0 0 Z " fill="#E8E8E8" transform="translate(18,816)"/>
<path d="M0 0 C1.42098605 2.66434884 1.19767261 4.90991085 1 7.875 C0.34 7.545 -0.32 7.215 -1 6.875 C-1.33 5.555 -1.66 4.235 -2 2.875 C-6.29 2.545 -10.58 2.215 -15 1.875 C-14 -0.125 -14 -0.125 -12.4375 -0.75 C-3.71812081 -2.09144295 -3.71812081 -2.09144295 0 0 Z " fill="#DEDEDE" transform="translate(30,961.125)"/>
<path d="M0 0 C1.2065625 0.0309375 1.2065625 0.0309375 2.4375 0.0625 C2.1075 1.0525 1.7775 2.0425 1.4375 3.0625 C0.4475 3.0625 -0.5425 3.0625 -1.5625 3.0625 C-1.8925 4.3825 -2.2225 5.7025 -2.5625 7.0625 C-0.5825 7.0625 1.3975 7.0625 3.4375 7.0625 C3.4375 7.3925 3.4375 7.7225 3.4375 8.0625 C-0.8525 8.0625 -5.1425 8.0625 -9.5625 8.0625 C-9.5625 7.4025 -9.5625 6.7425 -9.5625 6.0625 C-7.9125 6.0625 -6.2625 6.0625 -4.5625 6.0625 C-4.418125 5.258125 -4.27375 4.45375 -4.125 3.625 C-3.347189 0.08163876 -3.347189 0.08163876 0 0 Z " fill="#515151" transform="translate(23.5625,940.9375)"/>
<path d="M0 0 C1.32 0.33 2.64 0.66 4 1 C3.625 3.4375 3.625 3.4375 3 6 C2.01 6.495 2.01 6.495 1 7 C1 5.68 1 4.36 1 3 C-1.475 4.485 -1.475 4.485 -4 6 C-4.99 5.01 -5.98 4.02 -7 3 C-7.99 3.495 -7.99 3.495 -9 4 C-9 3.01 -9 2.02 -9 1 C-6.03 1.33 -3.06 1.66 0 2 C0 1.34 0 0.68 0 0 Z " fill="#E3E3E3" transform="translate(27,877)"/>
<path d="M0 0 C1.07465731 3.22397192 1.16691803 5.67470786 1.1875 9.0625 C1.20167969 10.12597656 1.21585938 11.18945312 1.23046875 12.28515625 C1 15 1 15 -1 17 C-3.34515209 13.33569986 -3.36881381 10.27824017 -3 6 C-1.5 2.5625 -1.5 2.5625 0 0 Z " fill="#E52B2D" transform="translate(789,646)"/>
<path d="M0 0 C0.66 0 1.32 0 2 0 C1.67 1.32 1.34 2.64 1 4 C-0.76774419 4.53122363 -2.53934083 5.04964073 -4.3125 5.5625 C-5.29863281 5.85253906 -6.28476562 6.14257812 -7.30078125 6.44140625 C-10 7 -10 7 -13 6 C-7.81454918 1.06147541 -7.81454918 1.06147541 -3.6875 0.75 C-2.3571875 0.87375 -2.3571875 0.87375 -1 1 C-0.67 0.67 -0.34 0.34 0 0 Z " fill="#E0E0E0" transform="translate(28,970)"/>
<path d="M0 0 C1.5625 1.1875 1.5625 1.1875 3 3 C2.6875 5.6875 2.6875 5.6875 2 8 C0.35 7.67 -1.3 7.34 -3 7 C-3.33 5.35 -3.66 3.7 -4 2 C-2.68 1.34 -1.36 0.68 0 0 Z " fill="#DC191A" transform="translate(598,657)"/>
<path d="M0 0 C1.32 0 2.64 0 4 0 C6 3 6 3 6 7 C5.01 7.33 4.02 7.66 3 8 C0.9375 6.25 0.9375 6.25 -1 4 C-0.75 1.75 -0.75 1.75 0 0 Z " fill="#DD191A" transform="translate(146,422)"/>
<path d="M0 0 C1.65 0.33 3.3 0.66 5 1 C5.33 2.65 5.66 4.3 6 6 C4.1875 6.625 4.1875 6.625 2 7 C1.01 6.34 0.02 5.68 -1 5 C-0.67 3.35 -0.34 1.7 0 0 Z " fill="#DC191A" transform="translate(424,487)"/>
<path d="M0 0 C2.31 0.33 4.62 0.66 7 1 C7 1.66 7 2.32 7 3 C4.69 3.66 2.38 4.32 0 5 C-0.33 6.32 -0.66 7.64 -1 9 C-2.65 9 -4.3 9 -6 9 C-6.33 9.66 -6.66 10.32 -7 11 C-6.67 9.68 -6.34 8.36 -6 7 C-5.38125 6.95875 -4.7625 6.9175 -4.125 6.875 C-3.42375 6.58625 -2.7225 6.2975 -2 6 C-0.6954344 3.00384054 -0.6954344 3.00384054 0 0 Z " fill="#E4E4E4" transform="translate(20,938)"/>
<path d="M0 0 C1.65 0.33 3.3 0.66 5 1 C5.33 2.65 5.66 4.3 6 6 C4.1875 6.6875 4.1875 6.6875 2 7 C0.1875 5.8125 0.1875 5.8125 -1 4 C-0.6875 1.8125 -0.6875 1.8125 0 0 Z " fill="#DC181A" transform="translate(551,529)"/>
<path d="M0 0 C0.33 0 0.66 0 1 0 C1.98419339 4.05979772 2.23183367 7.82699392 2 12 C1.01 13.485 1.01 13.485 0 15 C-0.66 14.67 -1.32 14.34 -2 14 C-1.85866501 12.22880197 -1.71176792 10.45804713 -1.5625 8.6875 C-1.48128906 7.70136719 -1.40007812 6.71523438 -1.31640625 5.69921875 C-1 3 -1 3 0 0 Z " fill="#E32525" transform="translate(237,504)"/>
<path d="M0 0 C0.66 0 1.32 0 2 0 C2.70328292 4.96625938 3.10856358 9.07305075 2 14 C1.90826214 17.00186654 1.94113012 19.99763617 2 23 C1.67 23 1.34 23 1 23 C0.63530576 19.73025053 0.28506661 16.45911086 -0.0625 13.1875 C-0.16626953 12.25873047 -0.27003906 11.32996094 -0.37695312 10.37304688 C-0.47041016 9.48037109 -0.56386719 8.58769531 -0.66015625 7.66796875 C-0.74918213 6.84578857 -0.83820801 6.0236084 -0.92993164 5.17651367 C-1 3 -1 3 0 0 Z " fill="#E84345" transform="translate(832,416)"/>
<path d="M0 0 C1.65 0.33 3.3 0.66 5 1 C5.33 2.65 5.66 4.3 6 6 C4.68 6.33 3.36 6.66 2 7 C0.4375 5.1875 0.4375 5.1875 -1 3 C-0.67 2.01 -0.34 1.02 0 0 Z " fill="#DC1919" transform="translate(488,765)"/>
<path d="M0 0 C2.8992226 0.46761655 3.86675182 0.86675182 6 3 C5.625 5.125 5.625 5.125 5 7 C3.35 6.67 1.7 6.34 0 6 C-0.38218767 4.34385343 -0.71395102 2.67542976 -1 1 C-0.67 0.67 -0.34 0.34 0 0 Z " fill="#DC1819" transform="translate(390,690)"/>
<path d="M0 0 C0.99 0.99 1.98 1.98 3 3 C1.8141763 6.37503669 0.72426311 8.64722731 -2 11 C-2.99 10.34 -3.98 9.68 -5 9 C-3.35 6.03 -1.7 3.06 0 0 Z " fill="#E52B2C" transform="translate(795,636)"/>
<path d="M0 0 C5.24414718 -0.31464883 8.53939419 0.16143267 13 3 C14.875 5.1875 14.875 5.1875 16 7 C15.01 7.495 15.01 7.495 14 8 C11 7 11 7 9 4 C7.50256881 2.50256881 6.01175761 2.66797307 3.9375 2.4375 C2.638125 2.293125 1.33875 2.14875 0 2 C0 1.34 0 0.68 0 0 Z " fill="#E42526" transform="translate(675,374)"/>
<path d="M0 0 C2.64 0 5.28 0 8 0 C8.125 2.875 8.125 2.875 8 6 C6 8 6 8 2.875 8.125 C1.451875 8.063125 1.451875 8.063125 0 8 C-0.33 6.68 -0.66 5.36 -1 4 C1.97 4.495 1.97 4.495 5 5 C5.33 3.68 5.66 2.36 6 1 C4.02 1 2.04 1 0 1 C0 0.67 0 0.34 0 0 Z " fill="#515151" transform="translate(21,964)"/>
<path d="M0 0 C0.66 0 1.32 0 2 0 C2.33 1.32 2.66 2.64 3 4 C4.32 4.33 5.64 4.66 7 5 C7.33 3.35 7.66 1.7 8 0 C8.66 0 9.32 0 10 0 C10.125 2.375 10.125 2.375 10 5 C8 7 8 7 5 7.3125 C3.515 7.1578125 3.515 7.1578125 2 7 C0 4 0 4 0 0 Z " fill="#535353" transform="translate(19,890)"/>
<path d="M0 0 C4.875 0.875 4.875 0.875 6 2 C6.1875 4.4375 6.1875 4.4375 6 7 C4 9 4 9 1.375 9.125 C0.59125 9.08375 -0.1925 9.0425 -1 9 C0 7 0 7 3 6 C3 5.01 3 4.02 3 3 C2.34 3 1.68 3 1 3 C0.34 3.66 -0.32 4.32 -1 5 C-0.67 3.35 -0.34 1.7 0 0 Z " fill="#525252" transform="translate(23,803)"/>
<path d="M0 0 C0.33 0 0.66 0 1 0 C1.66 5.61 2.32 11.22 3 17 C1.68 16.34 0.36 15.68 -1 15 C-0.979375 14.278125 -0.95875 13.55625 -0.9375 12.8125 C-0.99820559 10.08074862 -1.39258535 7.65743909 -2 5 C-1.34 5 -0.68 5 0 5 C0 3.35 0 1.7 0 0 Z " fill="#E63232" transform="translate(310,496)"/>
<path d="M0 0 C0.33 0.66 0.66 1.32 1 2 C-1.64 2 -4.28 2 -7 2 C-7.33 2.99 -7.66 3.98 -8 5 C-10.4375 6.125 -10.4375 6.125 -13 7 C-13.99 7.495 -13.99 7.495 -15 8 C-12.52338049 1.06546536 -6.8003924 -0.54403139 0 0 Z " fill="#E52425" transform="translate(324,374)"/>
<path d="M0 0 C0.99 0 1.98 0 3 0 C3 0.66 3 1.32 3 2 C3.66 2 4.32 2 5 2 C4.67 4.31 4.34 6.62 4 9 C3.01 8.67 2.02 8.34 1 8 C1 6.68 1 5.36 1 4 C0.34 4 -0.32 4 -1 4 C-0.67 2.68 -0.34 1.36 0 0 Z " fill="#D3D3D3" transform="translate(16,913)"/>
<path d="M0 0 C2.16866801 2.16866801 3.45460528 4.35995069 5 7 C5.99 8.485 5.99 8.485 7 10 C6.01 10.33 5.02 10.66 4 11 C2.02 8.69 0.04 6.38 -2 4 C-1.34 2.68 -0.68 1.36 0 0 Z " fill="#E52324" transform="translate(485,606)"/>
<path d="M0 0 C2.25 1.9375 2.25 1.9375 4 4 C3.01 4.495 3.01 4.495 2 5 C1.34444881 7.52733235 1.34444881 7.52733235 1 10 C0.67 10 0.34 10 0 10 C0 8.02 0 6.04 0 4 C-1.32 4 -2.64 4 -4 4 C-4 3.01 -4 2.02 -4 1 C-2.25 0.25 -2.25 0.25 0 0 Z " fill="#D8D8D8" transform="translate(25,927)"/>
<path d="M0 0 C-0.66 1.32 -1.32 2.64 -2 4 C-4.31 3.01 -6.62 2.02 -9 1 C-9 3.64 -9 6.28 -9 9 C-9.33 9 -9.66 9 -10 9 C-10 5.7 -10 2.4 -10 -1 C-6.06329512 -2.31223496 -3.87511856 -1.24296256 0 0 Z " fill="#E1E1E1" transform="translate(25,812)"/>
<path d="M0 0 C1.66297454 3.32594908 2.63931995 5.39319953 3 9 C2.0625 11.3125 2.0625 11.3125 1 13 C0.01 13 -0.98 13 -2 13 C-1.34 8.71 -0.68 4.42 0 0 Z " fill="#F8EAE9" transform="translate(172,403)"/>
<path d="M0 0 C1.65 0.33 3.3 0.66 5 1 C5.33 2.65 5.66 4.3 6 6 C5.01 6.495 5.01 6.495 4 7 C2.35 5.68 0.7 4.36 -1 3 C-0.67 2.01 -0.34 1.02 0 0 Z " fill="#DC1819" transform="translate(401,679)"/>
<path d="M0 0 C2.62187494 1.04874998 3.79371361 1.64931313 5.25 4.125 C5.4975 4.74375 5.745 5.3625 6 6 C4.35 6.33 2.7 6.66 1 7 C1 6.34 1 5.68 1 5 C0.34 5 -0.32 5 -1 5 C-0.67 3.35 -0.34 1.7 0 0 Z " fill="#DC191A" transform="translate(540,540)"/>
<path d="M0 0 C1.65 0.33 3.3 0.66 5 1 C5.33 2.65 5.66 4.3 6 6 C5.01 6.33 4.02 6.66 3 7 C3 6.34 3 5.68 3 5 C2.34 5 1.68 5 1 5 C1 4.34 1 3.68 1 3 C0.34 3 -0.32 3 -1 3 C-0.67 2.01 -0.34 1.02 0 0 Z " fill="#DC1819" transform="translate(562,518)"/>
<path d="M0 0 C-1.32 2.64 -2.64 5.28 -4 8 C-4.99 7.34 -5.98 6.68 -7 6 C-7 5.01 -7 4.02 -7 3 C-7.66 2.34 -8.32 1.68 -9 1 C-5.92677456 0.08941469 -3.19902639 -0.08886184 0 0 Z " fill="#F7F0EF" transform="translate(250,337)"/>
<path d="M0 0 C0.80824219 0.10183594 1.61648437 0.20367187 2.44921875 0.30859375 C3.06410156 0.39238281 3.67898437 0.47617187 4.3125 0.5625 C3.9825 1.2225 3.6525 1.8825 3.3125 2.5625 C1.24609375 3.1953125 1.24609375 3.1953125 -1.25 3.6875 C-2.07628906 3.85507812 -2.90257812 4.02265625 -3.75390625 4.1953125 C-4.39199219 4.31648438 -5.03007812 4.43765625 -5.6875 4.5625 C-5.6875 3.5725 -5.6875 2.5825 -5.6875 1.5625 C-6.3475 1.2325 -7.0075 0.9025 -7.6875 0.5625 C-4.59271121 -0.46909626 -3.16118607 -0.41232862 0 0 Z " fill="#E62C2D" transform="translate(224.6875,258.4375)"/>
<path d="M0 0 C4.02550319 1.3418344 4.88285636 3.4227573 7 7 C7 7.66 7 8.32 7 9 C3.34683329 7.75023244 2.21934164 7.32901247 0 4 C0 2.68 0 1.36 0 0 Z " fill="#E62B2C" transform="translate(692,719)"/>
<path d="M0 0 C0.33 0 0.66 0 1 0 C2.43069422 7.29654052 1.33979115 13.73633891 0 21 C-0.33 21 -0.66 21 -1 21 C-1.02895976 17.87501937 -1.04678483 14.7500731 -1.0625 11.625 C-1.07087891 10.73554688 -1.07925781 9.84609375 -1.08789062 8.9296875 C-1.09111328 8.07890625 -1.09433594 7.228125 -1.09765625 6.3515625 C-1.10289307 5.56604004 -1.10812988 4.78051758 -1.11352539 3.97119141 C-1 2 -1 2 0 0 Z " fill="#F8E0DF" transform="translate(238,483)"/>
<path d="M0 0 C0.33 0 0.66 0 1 0 C0.67 5.28 0.34 10.56 0 16 C-0.66 15.67 -1.32 15.34 -2 15 C-3.28571429 8.57142857 -3.28571429 8.57142857 -2 6 C-1.34 6 -0.68 6 0 6 C0 4.02 0 2.04 0 0 Z " fill="#E73333" transform="translate(788,448)"/>
<path d="M0 0 C0.5534764 2.07553648 1 3.84365964 1 6 C1.66 6.33 2.32 6.66 3 7 C2.34 8.32 1.68 9.64 1 11 C-0.65 10.67 -2.3 10.34 -4 10 C-2.8905928 6.51329166 -1.73662334 3.22515763 0 0 Z M-1 6 C0 8 0 8 0 8 Z " fill="#E52526" transform="translate(236,362)"/>
<path d="M0 0 C2.71687212 2.34638956 3.94515876 4.57176596 5 8 C4.67 8.66 4.34 9.32 4 10 C0.92382046 8.46191023 -0.23732301 5.87903909 -2 3 C-2 2.34 -2 1.68 -2 1 C-1.34 0.67 -0.68 0.34 0 0 Z " fill="#F9F2F1" transform="translate(762,274)"/>
<path d="M0 0 C0.66 0 1.32 0 2 0 C2.33 0.99 2.66 1.98 3 3 C3.66 3.33 4.32 3.66 5 4 C5 5.65 5 7.3 5 9 C4.34 9 3.68 9 3 9 C3 8.01 3 7.02 3 6 C1.68 6 0.36 6 -1 6 C-1.042721 4.33388095 -1.04063832 2.66617115 -1 1 C-0.67 0.67 -0.34 0.34 0 0 Z " fill="#DEDEDE" transform="translate(26,976)"/>
<path d="M0 0 C0.66 0.33 1.32 0.66 2 1 C6.14503661 1.24787017 6.14503661 1.24787017 10 0 C9.34 1.65 8.68 3.3 8 5 C6.02 5 4.04 5 2 5 C2 4.34 2 3.68 2 3 C1.34 3 0.68 3 0 3 C-0.33 3.66 -0.66 4.32 -1 5 C-0.67 3.35 -0.34 1.7 0 0 Z " fill="#DBDBDB" transform="translate(19,906)"/>
<path d="M0 0 C1.2065625 0.0309375 1.2065625 0.0309375 2.4375 0.0625 C2.4375 2.0425 2.4375 4.0225 2.4375 6.0625 C1.81875 5.876875 1.2 5.69125 0.5625 5.5 C-1.60410178 4.82563824 -1.60410178 4.82563824 -3.5625 6.0625 C-3.605221 4.39638095 -3.60313832 2.72867115 -3.5625 1.0625 C-2.5625 0.0625 -2.5625 0.0625 0 0 Z " fill="#7E7E7E" transform="translate(22.5625,930.9375)"/>
<path d="M0 0 C0.33 0.66 0.66 1.32 1 2 C1.99 2 2.98 2 4 2 C4 2.66 4 3.32 4 4 C3.01 4.495 3.01 4.495 2 5 C2.66 5.66 3.32 6.32 4 7 C2.35 7.33 0.7 7.66 -1 8 C-1 7.34 -1 6.68 -1 6 C-1.99 6.33 -2.98 6.66 -4 7 C-4 6.34 -4 5.68 -4 5 C-3.01 5 -2.02 5 -1 5 C-1.33 4.01 -1.66 3.02 -2 2 C-1.34 2 -0.68 2 0 2 C0 1.34 0 0.68 0 0 Z " fill="#595959" transform="translate(24,855)"/>
<path d="M0 0 C2.34058637 2.12780579 3.70700306 4.11562221 5 7 C3.68 7.33 2.36 7.66 1 8 C0.01 6.68 -0.98 5.36 -2 4 C-1.34 2.68 -0.68 1.36 0 0 Z " fill="#F9F0EF" transform="translate(787,310)"/>
<path d="M0 0 C0.99 0.99 1.98 1.98 3 3 C2.34 4.98 1.68 6.96 1 9 C0.34 8.67 -0.32 8.34 -1 8 C-1 7.01 -1 6.02 -1 5 C-1.99 4.67 -2.98 4.34 -4 4 C-2.68 3.34 -1.36 2.68 0 2 C0 1.34 0 0.68 0 0 Z " fill="#E6E6E6" transform="translate(20,799)"/>
<path d="M0 0 C0.99 0.33 1.98 0.66 3 1 C2.67 2.32 2.34 3.64 2 5 C1.67 4.67 1.34 4.34 1 4 C0.01 4.99 -0.98 5.98 -2 7 C-1.125 1.125 -1.125 1.125 0 0 Z M-4 7 C-3.01 7.33 -2.02 7.66 -1 8 C-1.66 8.66 -2.32 9.32 -3 10 C-3.99 9.34 -4.98 8.68 -6 8 C-5.34 7.67 -4.68 7.34 -4 7 Z " fill="#C8C8C8" transform="translate(24,764)"/>
<path d="M0 0 C1.65 0.33 3.3 0.66 5 1 C5 1.99 5 2.98 5 4 C4.01 4 3.02 4 2 4 C2 5.65 2 7.3 2 9 C0.68 8.67 -0.64 8.34 -2 8 C-1.34 7.67 -0.68 7.34 0 7 C0 4.69 0 2.38 0 0 Z " fill="#525252" transform="translate(24,834)"/>
<path d="M0 0 C0.99 0.33 1.98 0.66 3 1 C3.95261487 5.76307437 4.08333357 10.1666528 4 15 C2.34477603 12.06482551 1.70079936 9.7250642 1.4375 6.375 C1.18115456 3.06333997 1.18115456 3.06333997 0 0 Z " fill="#EDEDED" transform="translate(28,814)"/>
<path d="M0 0 C2.00720923 0.28674418 4.0085944 0.61866701 6 1 C6 2.32 6 3.64 6 5 C5.34 5 4.68 5 4 5 C4 4.01 4 3.02 4 2 C3.01 2 2.02 2 1 2 C1.33 3.65 1.66 5.3 2 7 C1.01 6.67 0.02 6.34 -1 6 C-1.042721 4.33388095 -1.04063832 2.66617115 -1 1 C-0.67 0.67 -0.34 0.34 0 0 Z " fill="#4F4F4F" transform="translate(17,773)"/>
<path d="M0 0 C0.99 0.33 1.98 0.66 3 1 C1.68 3.31 0.36 5.62 -1 8 C-1.66 8 -2.32 8 -3 8 C-3.33 8.66 -3.66 9.32 -4 10 C-3.5205537 5.78087253 -2.83374881 3.20336822 0 0 Z " fill="#E62527" transform="translate(670,377)"/>
<path d="M0 0 C1.65 0.33 3.3 0.66 5 1 C4.67 2.32 4.34 3.64 4 5 C2.35 4.67 0.7 4.34 -1 4 C-0.67 2.68 -0.34 1.36 0 0 Z " fill="#CFCFCF" transform="translate(22,954)"/>
<path d="M0 0 C1.65 0.33 3.3 0.66 5 1 C4.67 2.32 4.34 3.64 4 5 C2.35 4.67 0.7 4.34 -1 4 C-0.67 2.68 -0.34 1.36 0 0 Z " fill="#CDCDCD" transform="translate(22,901)"/>
<path d="M0 0 C0.33 0 0.66 0 1 0 C0.88652381 1.97986082 0.7589065 3.95891598 0.625 5.9375 C0.52058594 7.59072266 0.52058594 7.59072266 0.4140625 9.27734375 C0.27742188 10.17582031 0.14078125 11.07429687 0 12 C-0.99 12.495 -0.99 12.495 -2 13 C-3.125 7.375 -3.125 7.375 -2 4 C-1.34 4 -0.68 4 0 4 C0 2.68 0 1.36 0 0 Z " fill="#E42223" transform="translate(358,587)"/>
<path d="M0 0 C2.97 0.495 2.97 0.495 6 1 C6.33 2.32 6.66 3.64 7 5 C4.66666667 5 2.33333333 5 0 5 C0 3.35 0 1.7 0 0 Z " fill="#E52B2D" transform="translate(689,386)"/>
<path d="M0 0 C0 1.32 0 2.64 0 4 C-2.97 3.505 -2.97 3.505 -6 3 C-6 2.34 -6 1.68 -6 1 C-6.66 0.67 -7.32 0.34 -8 0 C-4.71023192 -1.09658936 -3.28696233 -0.79953138 0 0 Z " fill="#929292" transform="translate(23,977)"/>
<path d="M0 0 C2.0859375 3.6171875 2.0859375 3.6171875 1.3125 7.0625 C0.11838896 9.73503424 -0.76905723 11.17468319 -3 13 C-4 11 -4 11 -3.22265625 8.3984375 C-2.83980469 7.40070312 -2.45695313 6.40296875 -2.0625 5.375 C-1.68222656 4.37210938 -1.30195312 3.36921875 -0.91015625 2.3359375 C-0.60980469 1.56507813 -0.30945313 0.79421875 0 0 Z " fill="#E52A2A" transform="translate(532,608)"/>
<path d="M0 0 C1.9375 0.75 1.9375 0.75 4 2 C4.875 4 4.875 4 5 6 C4.34 6.66 3.68 7.32 3 8 C0.875 7.625 0.875 7.625 -1 7 C-0.67 4.69 -0.34 2.38 0 0 Z " fill="#E72B2C" transform="translate(826,558)"/>
<path d="M0 0 C1.98 0.66 3.96 1.32 6 2 C3.14589666 3.50560497 0.31875358 4.63216796 -2.75 5.625 C-3.54921875 5.88539063 -4.3484375 6.14578125 -5.171875 6.4140625 C-5.77515625 6.60742188 -6.3784375 6.80078125 -7 7 C-7 6.34 -7 5.68 -7 5 C-5.35666496 3.96210419 -3.68756133 2.96432076 -2 2 C-1.34 1.34 -0.68 0.68 0 0 Z " fill="#E3292B" transform="translate(565,537)"/>
<path d="M0 0 C0.33 2.97 0.66 5.94 1 9 C0.01 9 -0.98 9 -2 9 C-2.66 7.02 -3.32 5.04 -4 3 C-1.125 0 -1.125 0 0 0 Z " fill="#E62E2E" transform="translate(619,448)"/>
<path d="M0 0 C2.14418558 3.21627837 2.67582137 5.19090105 3 9 C2.34 9.66 1.68 10.32 1 11 C-0.98362069 8.08291076 -0.9876191 6.87619096 -0.625 3.25 C-0.41875 2.1775 -0.2125 1.105 0 0 Z " fill="#E72D30" transform="translate(610,414)"/>
<path d="M0 0 C1.33333333 0.66666667 2.66666667 1.33333333 4 2 C4 3.32 4 4.64 4 6 C2.0625 6.5625 2.0625 6.5625 0 7 C-1 6 -1 6 -1.125 3.5 C-1 1 -1 1 0 0 Z " fill="#888888" transform="translate(17,824)"/>
<path d="M0 0 C0.33 0.66 0.66 1.32 1 2 C1.99 1.67 2.98 1.34 4 1 C4.66 1.66 5.32 2.32 6 3 C4.875 4.5625 4.875 4.5625 3 6 C-0.1875 5.6875 -0.1875 5.6875 -3 5 C-2.01 3.35 -1.02 1.7 0 0 Z " fill="#E72326" transform="translate(305,720)"/>
<path d="M0 0 C2.30903272 3.98352209 1.86516528 6.50114053 1 11 C0.01 11 -0.98 11 -2 11 C-3 9 -3 9 -2.44140625 6.8359375 C-2.15136719 6.02382813 -1.86132812 5.21171875 -1.5625 4.375 C-1.27503906 3.55773437 -0.98757812 2.74046875 -0.69140625 1.8984375 C-0.46324219 1.27195312 -0.23507813 0.64546875 0 0 Z " fill="#E52A2B" transform="translate(244,541)"/>
<path d="M0 0 C1.9451 2.91765 2.45276317 4.62537285 3 8 C2.34 7.67 1.68 7.34 1 7 C0.01 7.99 -0.98 8.98 -2 10 C-1.85950482 8.52031676 -1.71245174 7.04125484 -1.5625 5.5625 C-1.48128906 4.73878906 -1.40007813 3.91507812 -1.31640625 3.06640625 C-1 1 -1 1 0 0 Z " fill="#E63130" transform="translate(689,503)"/>
<path d="M0 0 C4.875 4.625 4.875 4.625 6 8 C4.35 7.67 2.7 7.34 1 7 C0.67 4.69 0.34 2.38 0 0 Z " fill="#E42224" transform="translate(803,286)"/>
<path d="M0 0 C1.32 0.33 2.64 0.66 4 1 C3.67 3.31 3.34 5.62 3 8 C2.34 8 1.68 8 1 8 C0.67 5.36 0.34 2.72 0 0 Z " fill="#E7E7E7" transform="translate(28,929)"/>
<path d="M0 0 C0.99 0 1.98 0 3 0 C3 0.66 3 1.32 3 2 C3.66 2 4.32 2 5 2 C5.33 1.34 5.66 0.68 6 0 C5.67 1.65 5.34 3.3 5 5 C3.35 4.67 1.7 4.34 0 4 C0 2.68 0 1.36 0 0 Z " fill="#CECECE" transform="translate(21,890)"/>
<path d="M0 0 C0.66 0.33 1.32 0.66 2 1 C2 3.31 2 5.62 2 8 C1.34 8 0.68 8 0 8 C0 8.66 0 9.32 0 10 C-0.99 9.67 -1.98 9.34 -3 9 C-2.505 7.88625 -2.01 6.7725 -1.5 5.625 C0.1274506 2.34584251 0.1274506 2.34584251 0 0 Z " fill="#E9E9E9" transform="translate(30,802)"/>
<path d="M0 0 C0.66 0 1.32 0 2 0 C2.12375 0.804375 2.2475 1.60875 2.375 2.4375 C2.684375 3.7059375 2.684375 3.7059375 3 5 C3.66 5.33 4.32 5.66 5 6 C4.01 6.66 3.02 7.32 2 8 C0.68 6.68 -0.64 5.36 -2 4 C-1.34 2.68 -0.68 1.36 0 0 Z " fill="#E42626" transform="translate(464,799)"/>
<path d="M0 0 C0.33 0.99 0.66 1.98 1 3 C0 4 0 4 -3.5625 4.0625 C-4.696875 4.041875 -5.83125 4.02125 -7 4 C-7.33 3.34 -7.66 2.68 -8 2 C-4.91190305 0.23537317 -3.76687864 0 0 0 Z " fill="#E52323" transform="translate(803,665)"/>
<path d="M0 0 C0.433125 0.45375 0.86625 0.9075 1.3125 1.375 C3.10798342 3.20024334 3.10798342 3.20024334 6 5 C5.01 5.99 4.02 6.98 3 8 C0.9375 5.6875 0.9375 5.6875 -1 3 C-0.67 2.01 -0.34 1.02 0 0 Z " fill="#F9E9E7" transform="translate(472,616)"/>
<path d="M0 0 C0.33 0 0.66 0 1 0 C1.66 3.96 2.32 7.92 3 12 C-1 8 -1 8 -1.171875 5.859375 C-0.78125 3.90625 -0.390625 1.953125 0 0 Z " fill="#E62F30" transform="translate(645,600)"/>
<path d="M0 0 C2.96865509 2.54456151 4.3619751 5.48994665 6 9 C4.02 8.34 2.04 7.68 0 7 C0 6.01 0 5.02 0 4 C-0.33 3.34 -0.66 2.68 -1 2 C-0.67 1.34 -0.34 0.68 0 0 Z " fill="#F6EAE8" transform="translate(722,344)"/>
<path d="M0 0 C1 3 1 3 -0.25 6.625 C-2 10 -2 10 -5 11 C-3.55049545 7.2089881 -1.84827434 3.6125362 0 0 Z " fill="#E42427" transform="translate(247,341)"/>
<path d="M0 0 C1.98 0 3.96 0 6 0 C5.67 1.32 5.34 2.64 5 4 C3.35 3.67 1.7 3.34 0 3 C0 2.01 0 1.02 0 0 Z " fill="#D2D2D2" transform="translate(21,966)"/>
<path d="M0 0 C0.66 0 1.32 0 2 0 C2 0.99 2 1.98 2 3 C3.32 3.33 4.64 3.66 6 4 C4.68 4 3.36 4 2 4 C2 4.66 2 5.32 2 6 C1.34 6 0.68 6 0 6 C0 5.34 0 4.68 0 4 C-0.99 4 -1.98 4 -3 4 C-3 3.34 -3 2.68 -3 2 C-2.01 2 -1.02 2 0 2 C0 1.34 0 0.68 0 0 Z " fill="#494949" transform="translate(19,909)"/>
<path d="M0 0 C0.99 0 1.98 0 3 0 C3 0.99 3 1.98 3 3 C3.66 3.33 4.32 3.66 5 4 C4.34 4 3.68 4 3 4 C3 4.66 3 5.32 3 6 C1.35 6 -0.3 6 -2 6 C-1.67 5.34 -1.34 4.68 -1 4 C-0.64830932 2.67139075 -0.31229724 1.33841672 0 0 Z " fill="#D5D5D5" transform="translate(18,848)"/>
<path d="M0 0 C0.66 0.66 1.32 1.32 2 2 C1.195625 2.556875 0.39125 3.11375 -0.4375 3.6875 C-3.24228216 6.21864487 -3.69381595 7.32579134 -4 11 C-4.33 11 -4.66 11 -5 11 C-5.3125 7.75 -5.3125 7.75 -5 4 C-2.5 1.5625 -2.5 1.5625 0 0 Z " fill="#EBEBEB" transform="translate(20,841)"/>
<path d="M0 0 C2.97 1.98 2.97 1.98 6 4 C5.01 4.495 5.01 4.495 4 5 C4 5.66 4 6.32 4 7 C3.34 7 2.68 7 2 7 C1.34 4.69 0.68 2.38 0 0 Z M0 7 C0.66 7.33 1.32 7.66 2 8 C1.01 8 0.02 8 -1 8 C-0.67 7.67 -0.34 7.34 0 7 Z " fill="#F9EFEC" transform="translate(518,544)"/>
<path d="M0 0 C0.33 0 0.66 0 1 0 C1 2.31 1 4.62 1 7 C1.66 7 2.32 7 3 7 C3 8.65 3 10.3 3 12 C2.01 12.495 2.01 12.495 1 13 C-0.32229189 10.35541621 -0.09677194 8.32238699 -0.0625 5.375 C-0.05347656 4.37210937 -0.04445313 3.36921875 -0.03515625 2.3359375 C-0.02355469 1.56507813 -0.01195312 0.79421875 0 0 Z " fill="#E53739" transform="translate(284,453)"/>
<path d="M0 0 C0.66 0 1.32 0 2 0 C3.25664978 2.90600261 4 4.79604584 4 8 C3.01 8 2.02 8 1 8 C1 6.68 1 5.36 1 4 C0.34 4 -0.32 4 -1 4 C-0.67 2.68 -0.34 1.36 0 0 Z " fill="#E52526" transform="translate(770,380)"/>
<path d="M0 0 C0.99 0.33 1.98 0.66 3 1 C2.34 1.66 1.68 2.32 1 3 C0.83318891 6.08347826 0.83318891 6.08347826 1 9 C0.01 8.34 -0.98 7.68 -2 7 C-2.3125 4.5 -2.3125 4.5 -2 2 C-1.34 1.34 -0.68 0.68 0 0 Z " fill="#5C5C5C" transform="translate(21,899)"/>
<path d="M0 0 C1.65 0 3.3 0 5 0 C5 1.32 5 2.64 5 4 C4.01 4.33 3.02 4.66 2 5 C1.34 4.67 0.68 4.34 0 4 C0 2.68 0 1.36 0 0 Z " fill="#959595" transform="translate(19,837)"/>
<path d="M0 0 C1.98 0.66 3.96 1.32 6 2 C6 2.99 6 3.98 6 5 C3.36 4.34 0.72 3.68 -2 3 C-1.34 2.01 -0.68 1.02 0 0 Z " fill="#E52223" transform="translate(436,538)"/>
<path d="M0 0 C0.99 0.66 1.98 1.32 3 2 C2.67 3.32 2.34 4.64 2 6 C0.02 5.34 -1.96 4.68 -4 4 C-2.68 2.68 -1.36 1.36 0 0 Z " fill="#F8F1EF" transform="translate(553,345)"/>
<path d="M0 0 C1.9375 0.3125 1.9375 0.3125 4 1 C4.33 1.99 4.66 2.98 5 4 C3.02 4 1.04 4 -1 4 C-0.67 2.68 -0.34 1.36 0 0 Z " fill="#D5D5D5" transform="translate(22,943)"/>
<path d="M0 0 C0.66 0 1.32 0 2 0 C2 0.99 2 1.98 2 3 C1.34 3 0.68 3 0 3 C-0.33 6.63 -0.66 10.26 -1 14 C-1.33 14 -1.66 14 -2 14 C-2.1799928 8.78020872 -1.97094808 4.92737019 0 0 Z " fill="#EDEDED" transform="translate(16,908)"/>
<path d="M0 0 C0.99 0 1.98 0 3 0 C3.66 1.98 4.32 3.96 5 6 C4.01 6.33 3.02 6.66 2 7 C1.34 4.69 0.68 2.38 0 0 Z " fill="#E52728" transform="translate(187,606)"/>
<path d="M0 0 C2 2 2 2 2.125 4.625 C2.08375 5.40875 2.0425 6.1925 2 7 C0.68 7.33 -0.64 7.66 -2 8 C-1.34 5.36 -0.68 2.72 0 0 Z " fill="#E72F30" transform="translate(820,579)"/>
<path d="M0 0 C2 3 2 3 2 6 C1.34 6 0.68 6 0 6 C-0.66 7.32 -1.32 8.64 -2 10 C-1.85950482 8.52031676 -1.71245174 7.04125484 -1.5625 5.5625 C-1.48128906 4.73878906 -1.40007812 3.91507812 -1.31640625 3.06640625 C-1 1 -1 1 0 0 Z " fill="#E62525" transform="translate(372,498)"/>
<path d="M0 0 C1.5625 1.1875 1.5625 1.1875 3 3 C2.6875 5.6875 2.6875 5.6875 2 8 C1.01 8 0.02 8 -1 8 C-0.67 5.36 -0.34 2.72 0 0 Z " fill="#E42123" transform="translate(378,464)"/>
<path d="M0 0 C0.99 0 1.98 0 3 0 C3.33 0.99 3.66 1.98 4 3 C2.35 4.65 0.7 6.3 -1 8 C-1.33 7.01 -1.66 6.02 -2 5 C-1.34 5 -0.68 5 0 5 C0 3.35 0 1.7 0 0 Z " fill="#F8F1EF" transform="translate(756,339)"/>
<path d="M0 0 C1.7074998 1.28062485 3.37373596 2.61767557 5 4 C5 4.66 5 5.32 5 6 C4.01 6.33 3.02 6.66 2 7 C0.68 5.02 -0.64 3.04 -2 1 C-1.34 0.67 -0.68 0.34 0 0 Z " fill="#F7F3F1" transform="translate(739,317)"/>
<path d="M0 0 C0.94875 0.165 1.8975 0.33 2.875 0.5 C5.80168901 1.0526635 5.80168901 1.0526635 8 1 C7.67 1.99 7.34 2.98 7 4 C5.02 4 3.04 4 1 4 C0.67 2.68 0.34 1.36 0 0 Z " fill="#4E4E4E" transform="translate(20,957)"/>
<path d="M0 0 C0.66 0.66 1.32 1.32 2 2 C4.06874034 2.6425235 4.06874034 2.6425235 6 3 C6 3.66 6 4.32 6 5 C4.02 5.66 2.04 6.32 0 7 C0 4.69 0 2.38 0 0 Z " fill="#DFDFDF" transform="translate(19,894)"/>
<path d="M0 0 C1.65 0 3.3 0 5 0 C4.67 1.65 4.34 3.3 4 5 C2.35 4.67 0.7 4.34 -1 4 C-0.67 2.68 -0.34 1.36 0 0 Z " fill="#E52223" transform="translate(329,680)"/>
<path d="M0 0 C0.99 1.32 1.98 2.64 3 4 C2.34 4.66 1.68 5.32 1 6 C0.34 6 -0.32 6 -1 6 C-1.66 4.35 -2.32 2.7 -3 1 C-2.01 0.67 -1.02 0.34 0 0 Z " fill="#E52325" transform="translate(207,641)"/>
<path d="M0 0 C0 0.66 0 1.32 0 2 C-5.75 5 -5.75 5 -8 5 C-8 4.34 -8 3.68 -8 3 C-8.66 2.67 -9.32 2.34 -10 2 C-8.7090864 1.66376204 -7.41723903 1.33110751 -6.125 1 C-5.40570313 0.814375 -4.68640625 0.62875 -3.9453125 0.4375 C-2 0 -2 0 0 0 Z " fill="#E52C2E" transform="translate(440,631)"/>
<path d="M0 0 C0.66 0 1.32 0 2 0 C2.25532751 3.06393013 2.21861333 4.63233212 0.625 7.3125 C-0.179375 8.1478125 -0.179375 8.1478125 -1 9 C-1.66 9 -2.32 9 -3 9 C-2.01 6.03 -1.02 3.06 0 0 Z " fill="#E62E2F" transform="translate(811,603)"/>
<path d="M0 0 C0.66 0.33 1.32 0.66 2 1 C2.4140625 3.06640625 2.4140625 3.06640625 2.625 5.5625 C2.69976563 6.38878906 2.77453125 7.21507812 2.8515625 8.06640625 C2.92503906 9.02353516 2.92503906 9.02353516 3 10 C2.34 8.68 1.68 7.36 1 6 C0.34 6 -0.32 6 -1 6 C-0.67 4.02 -0.34 2.04 0 0 Z " fill="#E62625" transform="translate(627,498)"/>
<path d="M0 0 C0.66 0 1.32 0 2 0 C2.1875 2.875 2.1875 2.875 2 6 C1.01 6.66 0.02 7.32 -1 8 C-2.2077558 4.37673261 -1.54311128 3.35853631 0 0 Z " fill="#EBEBEB" transform="translate(29,851)"/>
<path d="M0 0 C1.65 0.33 3.3 0.66 5 1 C5 1.99 5 2.98 5 4 C3.68 4.33 2.36 4.66 1 5 C0.34 4.01 -0.32 3.02 -1 2 C-0.67 1.34 -0.34 0.68 0 0 Z " fill="#E72324" transform="translate(506,633)"/>
<path d="M0 0 C2.475 0.99 2.475 0.99 5 2 C4.01 3.98 3.02 5.96 2 8 C0.23537317 4.91190305 0 3.76687864 0 0 Z " fill="#F7F2F1" transform="translate(649,614)"/>
<path d="M0 0 C0.33 0 0.66 0 1 0 C1.33 3.63 1.66 7.26 2 11 C1.01 10.34 0.02 9.68 -1 9 C-0.67 6.03 -0.34 3.06 0 0 Z " fill="#F2D8D9" transform="translate(212,517)"/>
<path d="M0 0 C0.66 0 1.32 0 2 0 C2.33 1.32 2.66 2.64 3 4 C2.34 4 1.68 4 1 4 C0.67 5.65 0.34 7.3 0 9 C-1.10844919 5.67465243 -0.84454356 3.37817425 0 0 Z " fill="#E73334" transform="translate(144,406)"/>
<path d="M0 0 C0.66 0 1.32 0 2 0 C1.25 5.75 1.25 5.75 -1 8 C-1.33 6.35 -1.66 4.7 -2 3 C-1.34 3 -0.68 3 0 3 C0 2.01 0 1.02 0 0 Z " fill="#E42322" transform="translate(324,404)"/>
<path d="M0 0 C0.99 0 1.98 0 3 0 C3.33 1.98 3.66 3.96 4 6 C3.01 6.33 2.02 6.66 1 7 C0.67 4.69 0.34 2.38 0 0 Z " fill="#E62A2C" transform="translate(841,364)"/>
<path d="M0 0 C3.96 1.98 3.96 1.98 8 4 C4 5 4 5 1 5 C0.67 3.35 0.34 1.7 0 0 Z " fill="#E72C2C" transform="translate(560,354)"/>
<path d="M0 0 C0.66 0.33 1.32 0.66 2 1 C1.67 2.32 1.34 3.64 1 5 C-0.65 5.33 -2.3 5.66 -4 6 C-4 5.34 -4 4.68 -4 4 C-3.01 3.67 -2.02 3.34 -1 3 C-0.67 2.01 -0.34 1.02 0 0 Z " fill="#4D4D4D" transform="translate(27,826)"/>
<path d="M0 0 C0.99 0.33 1.98 0.66 3 1 C2.67 2.32 2.34 3.64 2 5 C1.01 5 0.02 5 -1 5 C-0.67 3.35 -0.34 1.7 0 0 Z " fill="#CECECE" transform="translate(24,805)"/>
<path d="M0 0 C2.16874252 0.50603992 3.99967627 0.99983813 6 2 C5.67 3.32 5.34 4.64 5 6 C3.31237149 4.3545622 1.6459651 2.68711423 0 1 C0 0.67 0 0.34 0 0 Z " fill="#F5EBE9" transform="translate(695,721)"/>
<path d="M0 0 C0.33 0 0.66 0 1 0 C1.25 6.625 1.25 6.625 -1 10 C-1.66 9.67 -2.32 9.34 -3 9 C-2.67 7.68 -2.34 6.36 -2 5 C-1.34 5 -0.68 5 0 5 C0 3.35 0 1.7 0 0 Z " fill="#EA3C3D" transform="translate(238,509)"/>
<path d="M0 0 C0.99 1.32 1.98 2.64 3 4 C2.34 5.32 1.68 6.64 1 8 C0.34 8 -0.32 8 -1 8 C-0.67 5.36 -0.34 2.72 0 0 Z " fill="#E62425" transform="translate(819,311)"/>
</svg>
